<?xml version="1.0" standalone="no"?>
<!DOCTYPE svg PUBLIC "-//W3C//DTD SVG 1.1//EN" "http://www.w3.org/Graphics/SVG/1.1/DTD/svg11.dtd" >
<svg xmlns="http://www.w3.org/2000/svg" xmlns:xlink="http://www.w3.org/1999/xlink" version="1.1">
<metadata>
Created by FontForge 20170731 at Fri May 23 14:51:52 2014
 By Aleksey,,,
Copyright 2010 Monotype Imaging Inc. All rights reserved.
</metadata>
<defs>
<font id="HarmoniaSansW01-Bold" horiz-adv-x="573" >
  <font-face 
    font-family="HarmoniaSansW01-Bold"
    font-weight="700"
    font-stretch="normal"
    units-per-em="1000"
    panose-1="2 11 8 2 3 4 2 2 2 4"
    ascent="730"
    descent="-270"
    x-height="479"
    cap-height="682"
    bbox="-81 -258 1151 973"
    underline-thickness="50"
    underline-position="-200"
    unicode-range="U+0020-2122"
  />
<missing-glyph horiz-adv-x="500" 
d="M12 665h475v-665h-475v665zM250 375l161 243h-323zM60 91l7 10t18 27t25.5 39t29.5 45q35 54 81 121l-161 242v-484zM278 333l162 -243v485zM250 290l-162 -242h323z" />
    <glyph glyph-name=".notdef" horiz-adv-x="500" 
d="M12 665h475v-665h-475v665zM250 375l161 243h-323zM60 91l7 10t18 27t25.5 39t29.5 45q35 54 81 121l-161 242v-484zM278 333l162 -243v485zM250 290l-162 -242h323z" />
    <glyph glyph-name=".null" horiz-adv-x="0" 
 />
    <glyph glyph-name="nonmarkingreturn" horiz-adv-x="333" 
 />
    <glyph glyph-name="space" unicode=" " horiz-adv-x="250" 
 />
    <glyph glyph-name="exclam" unicode="!" horiz-adv-x="276" 
d="M67 129h142v-129h-142v129zM212 682l-14 -471h-120l-14 471h148z" />
    <glyph glyph-name="quotedbl" unicode="&#x22;" horiz-adv-x="440" 
d="M176 721l-10 -242h-103l-9 242h122zM386 721l-10 -242h-104l-8 242h122z" />
    <glyph glyph-name="numbersign" unicode="#" horiz-adv-x="612" 
d="M600 488l-19 -83h-108l-28 -132h110l-17 -84h-111l-41 -189h-97l42 189h-116l-42 -189h-96l42 189h-108l18 84h106l30 132h-109l17 83h110l41 194h97l-42 -194h115l42 194h97l-42 -194h109zM261 405l-30 -132h118l28 132h-116z" />
    <glyph glyph-name="dollar" unicode="$" 
d="M371 487q-3 33 -24.5 53t-59.5 20q-35 0 -57.5 -17t-22.5 -46q0 -16 6.5 -27.5t20.5 -21t36.5 -18.5t54.5 -20q101 -34 144 -83.5t43 -117.5q0 -29 -10.5 -58.5t-32 -55t-54 -44.5t-76.5 -27v-90h-107v89q-78 13 -124.5 62.5t-54.5 130.5h136q5 -42 29 -67.5t72 -25.5
q42 0 65 23.5t23 53.5q0 39 -28.5 61.5t-94.5 44.5q-50 16 -84.5 36t-55.5 44t-30 51.5t-9 59.5t11.5 58.5t32.5 47.5t49.5 35t62.5 20v77h107v-75q77 -13 117.5 -60t44.5 -113h-130z" />
    <glyph glyph-name="percent" unicode="%" horiz-adv-x="817" 
d="M37 513q0 50 15.5 86t39.5 59t53.5 34t58.5 11q27 0 55.5 -10t52 -32t38.5 -58t15 -88q0 -57 -16.5 -95t-41.5 -60.5t-53.5 -31.5t-52.5 -9q-27 0 -56 10t-53 33t-39.5 60t-15.5 91zM266 512q0 52 -17 79.5t-48 27.5q-27 0 -46.5 -25t-19.5 -81q0 -57 18 -83t49 -26
q26 0 45 25.5t19 82.5zM453 172q0 50 15 86t39 59t54 34t59 11q27 0 55.5 -10t52 -32.5t38.5 -58t15 -87.5q0 -58 -16.5 -95.5t-41.5 -59.5t-53.5 -31t-52.5 -9q-28 0 -57 10t-53 32.5t-39 59.5t-15 91zM682 171q0 52 -17 79t-49 27q-26 0 -45.5 -24.5t-19.5 -80.5
q0 -57 18 -83t48 -26q26 0 45.5 25.5t19.5 82.5zM692 682l-468 -682h-97l468 682h97z" />
    <glyph glyph-name="ampersand" unicode="&#x26;" horiz-adv-x="643" 
d="M473 344h122v-8q0 -59 -18.5 -112t-49.5 -91q20 -22 36.5 -31t33.5 -9q8 0 16.5 1t13.5 3v-107q-7 -2 -22.5 -4.5t-29.5 -2.5q-41 0 -70 15.5t-60 50.5q-14 -11 -34 -23t-44 -22t-52 -16t-59 -6q-58 0 -100 16t-69.5 43t-40.5 62.5t-13 74.5q0 69 37 116.5t106 84.5
q-24 36 -42 76t-18 85q0 30 11 59t34.5 52t60 37t87.5 14q40 0 74.5 -11t59.5 -31.5t39 -49t14 -64.5q0 -63 -39 -108t-114 -83l104 -134q13 24 19.5 51t6.5 63v9zM261 86q33 0 62 13t46 29l-133 169q-39 -26 -57 -54.5t-18 -60.5q0 -19 7 -36.5t20 -30.5t31.5 -21t41.5 -8z
M244 540q0 -31 10 -55t30 -50q45 22 68.5 46.5t23.5 59.5q0 21 -16.5 40t-51.5 19q-17 0 -29 -5.5t-20 -14.5t-11.5 -19.5t-3.5 -20.5z" />
    <glyph glyph-name="quotesingle" unicode="'" horiz-adv-x="230" 
d="M176 721l-10 -242h-103l-9 242h122z" />
    <glyph glyph-name="parenleft" unicode="(" horiz-adv-x="361" 
d="M215 -215q-39 51 -67.5 110t-47 121t-27.5 125t-9 122q0 60 9 123.5t27.5 125.5t47 120.5t67.5 110.5h129q-40 -52 -68 -110.5t-46 -120.5t-26 -125.5t-8 -123.5q0 -59 8 -122t26 -125t46 -121t68 -110h-129z" />
    <glyph glyph-name="parenright" unicode=")" horiz-adv-x="361" 
d="M17 -215q40 51 68 109.5t45.5 120.5t25.5 125t8 123t-8 123.5t-25.5 125.5t-45.5 120.5t-68 110.5h129q39 -52 67 -110.5t46.5 -120.5t27.5 -125.5t9 -123.5t-9 -123t-27.5 -125t-46.5 -120.5t-67 -109.5h-129z" />
    <glyph glyph-name="asterisk" unicode="*" horiz-adv-x="440" 
d="M45 626l132 -49l-7 144h99l-8 -144l132 49l31 -91l-136 -37l90 -112l-84 -56l-75 119l-76 -119l-84 56l90 112l-133 35z" />
    <glyph glyph-name="plus" unicode="+" horiz-adv-x="672" 
d="M387 213v-213h-103v213h-207v103h207v214h103v-214h207v-103h-207z" />
    <glyph glyph-name="comma" unicode="," horiz-adv-x="276" 
d="M57 152h162v-66q0 -39 -6 -72t-16 -60.5t-21.5 -49.5t-22.5 -39h-79q23 38 34.5 75t14.5 60h-66v152z" />
    <glyph glyph-name="hyphen" unicode="-" horiz-adv-x="465" 
d="M75 211v105h322v-105h-322z" />
    <glyph glyph-name="period" unicode="." horiz-adv-x="276" 
d="M57 152h162v-152h-162v152z" />
    <glyph glyph-name="slash" unicode="/" horiz-adv-x="415" 
d="M402 720l-309 -834h-116l308 834h117z" />
    <glyph glyph-name="zero" unicode="0" 
d="M31 344q0 99 23.5 167.5t60.5 111t83.5 62t93.5 19.5q43 0 87.5 -17.5t80.5 -58.5t59 -109.5t23 -170.5q0 -113 -26 -185.5t-64.5 -113.5t-83 -56.5t-80.5 -15.5q-44 0 -89.5 17t-82.5 59t-61 113t-24 178zM401 344q0 122 -31 180.5t-83 58.5q-22 0 -42.5 -12.5
t-36.5 -41t-25.5 -73.5t-9.5 -109q0 -67 9 -114.5t24.5 -77.5t37 -43.5t46.5 -13.5q20 0 40 13t35.5 42t25.5 76t10 115z" />
    <glyph glyph-name="one" unicode="1" 
d="M226 560h-100v122h238v-682h-138v560z" />
    <glyph glyph-name="two" unicode="2" 
d="M69 104l204 229q19 21 36.5 42.5t31 43t21.5 43.5t8 43q0 34 -21 56t-59 22q-41 0 -63 -28.5t-22 -71.5h-140q1 46 15 86t42 70t70.5 47.5t100.5 17.5q52 0 92.5 -14.5t69 -40.5t43.5 -61.5t15 -76.5q0 -34 -9 -64.5t-28 -62t-47 -65t-65 -72.5l-117 -125h276v-122h-454
v104z" />
    <glyph glyph-name="three" unicode="3" 
d="M67 504q1 43 16.5 79.5t43.5 63.5t68.5 42t92.5 15t93 -13.5t69.5 -37.5t43 -57t14.5 -72q0 -29 -9.5 -53.5t-25 -43.5t-35.5 -32t-41 -19v-3q61 -15 97.5 -61t36.5 -115q0 -43 -15.5 -82.5t-46 -69.5t-76 -48t-106.5 -18q-59 0 -102.5 15.5t-73.5 44t-45.5 67.5
t-18.5 87h135q4 -45 31 -72.5t75 -27.5q47 0 74.5 30.5t27.5 80.5q0 47 -31 76t-94 29h-41v110h45q46 0 72 25t26 67q0 29 -19.5 53.5t-61.5 24.5q-44 0 -63 -26t-21 -59h-135z" />
    <glyph glyph-name="four" unicode="4" 
d="M456 126v-126h-134v126h-294v111l293 445h135v-440h87v-116h-87zM150 242h172v183v46t1 37h-3q-9 -20 -21.5 -41.5t-29.5 -47.5z" />
    <glyph glyph-name="five" unicode="5" 
d="M232 437q9 2 22.5 3.5t25.5 1.5q55 0 99.5 -16t76 -45t49 -71t17.5 -94q0 -46 -16.5 -89t-47.5 -76t-75.5 -53t-101.5 -20t-99.5 16.5t-72 45t-45 65t-18.5 77.5h144q5 -33 26.5 -56.5t66.5 -23.5q38 0 65.5 28t27.5 77q0 54 -34 84.5t-102 30.5q-36 0 -74.5 -5
t-78.5 -13l35 378h353v-122h-230z" />
    <glyph glyph-name="six" unicode="6" 
d="M27 227q0 66 27 122t66 113l155 220h153l-150 -213q6 2 20.5 3t23.5 1q48 -2 89 -21t71 -51.5t47 -77t17 -96.5q0 -51 -19 -96.5t-53.5 -79.5t-82.5 -53.5t-106 -19.5t-105.5 18.5t-81.5 51.5t-52.5 78.5t-18.5 100.5zM168 226q0 -29 9.5 -52t25.5 -40t37.5 -26t45.5 -9
q25 0 47 9t38 26t25 40t9 52q0 27 -9 51t-24.5 41t-37.5 27t-48 10q-52 0 -85 -35t-33 -94z" />
    <glyph glyph-name="seven" unicode="7" 
d="M512 568l-259 -568h-152l267 560h-304v122h448v-114z" />
    <glyph glyph-name="eight" unicode="8" 
d="M198 502q0 -42 26.5 -67.5t61.5 -25.5q40 0 64.5 26.5t24.5 66.5q0 41 -25.5 64.5t-63.5 23.5q-36 0 -62 -23.5t-26 -64.5zM183 199q0 -46 29 -76.5t77 -30.5q45 0 74.5 28t29.5 79q0 49 -29 79t-75 30t-76 -30t-30 -79zM532 192q0 -41 -15 -79.5t-45 -68.5t-76 -48
t-108 -18t-108.5 17t-77.5 45.5t-46 66.5t-15 79q0 68 32 112.5t87 67.5v2q-49 21 -74 58.5t-25 87.5q0 39 15.5 73.5t44.5 60.5t71 41t96 15q52 0 93 -15t70 -40t44.5 -58t15.5 -69q0 -58 -27.5 -98t-71.5 -56v-2q60 -22 90 -66.5t30 -107.5z" />
    <glyph glyph-name="nine" unicode="9" 
d="M546 455q0 -66 -27 -122t-66 -113l-155 -220h-153l150 213q-6 -2 -20.5 -3t-23.5 -1q-50 1 -91 20.5t-70.5 52t-46 77t-16.5 96.5q0 51 19 96.5t53.5 79.5t82.5 53.5t106 19.5t105.5 -18.5t81.5 -51.5t52.5 -78.5t18.5 -100.5zM405 456q0 28 -9.5 51.5t-25 40.5t-37 26
t-45.5 9q-51 0 -85.5 -35t-34.5 -92q0 -56 33 -92.5t87 -36.5q51 0 84 35t33 94z" />
    <glyph glyph-name="colon" unicode=":" horiz-adv-x="288" 
d="M63 473h163v-153h-163v153zM63 152h163v-152h-163v152z" />
    <glyph glyph-name="semicolon" unicode=";" horiz-adv-x="288" 
d="M63 152h163v-66q0 -39 -6.5 -72t-16 -60.5t-21.5 -49.5t-23 -39h-79q23 38 34.5 75t15.5 60h-67v152zM63 473h163v-153h-163v153z" />
    <glyph glyph-name="less" unicode="&#x3c;" horiz-adv-x="672" 
d="M86 221v88l500 227v-115l-357 -155v-2l357 -154v-116z" />
    <glyph glyph-name="equal" unicode="=" horiz-adv-x="672" 
d="M77 326v102h518v-102h-518zM77 101v103h518v-103h-518z" />
    <glyph glyph-name="greater" unicode="&#x3e;" horiz-adv-x="672" 
d="M86 -6v115l356 155v2l-356 154v116l500 -227v-89z" />
    <glyph glyph-name="question" unicode="?" horiz-adv-x="467" 
d="M337 326q-26 -23 -37 -48.5t-11 -66.5h-120q0 27 2 49.5t7.5 41.5t15 36t25.5 35l35 38.5t25.5 31.5t15.5 31t5 36q0 31 -20 52t-52 21t-54 -23t-22 -66h-134q1 48 16.5 87t43 66.5t66.5 42t88 14.5t88 -14.5t66 -39.5t41.5 -59t14.5 -73q0 -59 -28 -104t-77 -88z
M158 129h142v-129h-142v129z" />
    <glyph glyph-name="at" unicode="@" horiz-adv-x="935" 
d="M884 356q0 -59 -15.5 -107.5t-43 -84t-64 -55t-78.5 -19.5q-55 0 -89.5 23.5t-39.5 70.5h-4q-24 -49 -63.5 -71.5t-80.5 -22.5q-38 0 -67 14t-48 38.5t-28.5 57.5t-9.5 70q0 46 13.5 91.5t40 81.5t64.5 58t87 22q38 0 63.5 -18.5t40.5 -46.5h3l9 56h106l-36 -236
q-2 -17 -4 -30.5t-2 -23.5q0 -20 11.5 -36.5t42.5 -16.5q22 0 39.5 13.5t30.5 37.5t20 57t7 72q0 128 -76.5 200t-235.5 72q-80 0 -141.5 -27.5t-103.5 -74t-64 -107t-22 -126.5q0 -67 22.5 -122t65 -94t102.5 -60.5t135 -21.5q62 0 115.5 10t86.5 26l29 -67
q-41 -24 -104 -37t-135 -13q-91 0 -166.5 26.5t-130 76t-85 120t-30.5 157.5t31 162.5t88 132t136 88.5t175 32q99 0 174.5 -27t126.5 -74.5t76.5 -111t25.5 -135.5zM547 348q0 40 -18 65t-53 25q-26 0 -46.5 -13.5t-35 -36t-22.5 -52t-8 -61.5q0 -48 18 -74t49 -26
q28 0 49.5 14.5t36.5 38.5t22.5 55.5t7.5 64.5z" />
    <glyph glyph-name="A" unicode="A" horiz-adv-x="664" 
d="M272 682h134l251 -682h-147l-53 155h-252l-54 -155h-144zM239 257h183l-56 163q-10 29 -17.5 53.5t-14.5 50.5h-5q-14 -53 -33 -105z" />
    <glyph glyph-name="B" unicode="B" horiz-adv-x="564" 
d="M68 682h189q53 0 96.5 -10.5t74.5 -32t48 -54t17 -75.5q0 -29 -9.5 -52.5t-26 -41.5t-39 -30.5t-47.5 -18.5v-2q39 -5 68.5 -21t49.5 -38.5t30 -51t10 -58.5q0 -47 -18 -83.5t-50 -61.5t-75.5 -38t-94.5 -13h-223v682zM385 208q0 43 -29.5 70t-84.5 27h-68v-197h74
q53 0 80.5 26t27.5 74zM352 496q0 38 -27 58.5t-75 20.5h-47v-165h52q51 0 74 23t23 63z" />
    <glyph glyph-name="C" unicode="C" horiz-adv-x="765" 
d="M387 704q71 0 127.5 -21.5t97.5 -56t66 -77t34 -85.5h-154q-7 23 -21.5 44.5t-36.5 38t-51 26t-63 9.5q-45 0 -83 -17.5t-65.5 -49t-43 -76t-15.5 -97.5q0 -49 15 -93t42.5 -77t66 -52.5t85.5 -19.5q37 0 66.5 11t51.5 29t36.5 41t22.5 48h159q-16 -52 -45 -97.5
t-71 -79.5t-98 -54t-126 -20q-79 0 -144 28t-111 76.5t-71 115.5t-25 145t26.5 144t73.5 114.5t112 75.5t142 27z" />
    <glyph glyph-name="D" unicode="D" horiz-adv-x="710" 
d="M302 682q92 0 162 -27t117.5 -73.5t71.5 -108.5t24 -132q0 -69 -25 -131t-73.5 -108.5t-118.5 -74t-160 -27.5h-232v682h234zM297 126q60 0 104.5 17t73 46t42.5 68.5t14 83.5q0 48 -15 87.5t-44 68t-73 44t-102 15.5h-86v-430h86z" />
    <glyph glyph-name="E" unicode="E" horiz-adv-x="544" 
d="M475 558h-264v-147h255v-118h-255v-169h275v-124h-418v682h407v-124z" />
    <glyph glyph-name="F" unicode="F" horiz-adv-x="517" 
d="M476 558h-265v-164h255v-118h-255v-276h-143v682h408v-124z" />
    <glyph glyph-name="G" unicode="G" horiz-adv-x="770" 
d="M737 380v-33q0 -66 -20.5 -131.5t-63.5 -118t-108.5 -85t-156.5 -32.5q-78 0 -143.5 28t-112.5 76.5t-73 113.5t-26 139q0 79 27 146t74 115.5t112 76t142 27.5q123 0 208 -56.5t120 -155.5h-155q-23 43 -67 66.5t-103 23.5q-44 0 -82.5 -16.5t-67.5 -47t-46 -75
t-17 -100.5t16.5 -100.5t45.5 -75t70 -47t89 -16.5q38 0 70 12.5t56.5 34.5t40 51t19.5 62h-232v118h384z" />
    <glyph glyph-name="H" unicode="H" horiz-adv-x="696" 
d="M484 290h-273v-290h-143v682h143v-268h273v268h143v-682h-143v290z" />
    <glyph glyph-name="I" unicode="I" horiz-adv-x="278" 
d="M68 682h143v-682h-143v682z" />
    <glyph glyph-name="J" unicode="J" horiz-adv-x="386" 
d="M181 682h144v-474q0 -126 -53 -178t-157 -52q-27 0 -58.5 6t-48.5 14v120q15 -7 41.5 -12.5t45.5 -5.5q45 0 65.5 23t20.5 78v481z" />
    <glyph glyph-name="K" unicode="K" horiz-adv-x="651" 
d="M253 292q-7 -8 -21 -22t-21 -22v-248h-143v682h143v-261l248 261h179l-287 -295l320 -387h-181z" />
    <glyph glyph-name="L" unicode="L" horiz-adv-x="494" 
d="M68 682h143v-558h275v-124h-418v682z" />
    <glyph glyph-name="M" unicode="M" horiz-adv-x="822" 
d="M788 0h-138l-33 335q-2 17 -4 37l-4 40t-3.5 39t-2.5 34h-6q-9 -33 -19.5 -74.5t-21.5 -76.5l-99 -334h-100l-101 339q-10 32 -20.5 70t-18.5 76h-8q-2 -34 -5 -72.5t-6 -71.5l-35 -341h-129l81 682h158l100 -322q9 -29 19 -63t17 -62h4q7 28 17.5 63t18.5 62l98 322h157
z" />
    <glyph glyph-name="N" unicode="N" horiz-adv-x="678" 
d="M187 468q0 -12 1 -29.5t1.5 -35.5t1 -35t0.5 -29v-339h-123v682h123l190 -293q24 -36 40.5 -63.5t29 -49t21 -38t15.5 -29.5h3q0 13 -0.5 29.5t-1 33.5t-1 33t-0.5 27v350h123v-682h-123l-174 267q-29 46 -49 78t-33.5 55t-23 39t-16.5 29h-4z" />
    <glyph glyph-name="O" unicode="O" horiz-adv-x="789" 
d="M179 341q0 -50 16.5 -93t45.5 -74.5t68 -49.5t85 -18t85.5 18t68.5 49.5t45.5 74.5t16.5 93q0 49 -15.5 92t-43.5 74.5t-67.5 50t-88.5 18.5q-46 0 -85.5 -18t-68.5 -49.5t-45.5 -74.5t-16.5 -93zM33 341q0 73 27 138.5t75.5 115.5t115 79.5t145.5 29.5q84 0 151 -30
t113.5 -80.5t71 -116t24.5 -136.5q0 -75 -27.5 -141t-75.5 -115.5t-114 -78t-144 -28.5q-94 0 -162 33t-112.5 85.5t-66 117t-21.5 127.5z" />
    <glyph glyph-name="P" unicode="P" horiz-adv-x="564" 
d="M400 461q0 21 -6.5 40.5t-20.5 34t-36.5 23t-53.5 8.5h-72v-211h69q36 0 59 9t36.5 23.5t19 33.5t5.5 39zM68 682h218q55 0 102 -13t81.5 -40t54.5 -68.5t20 -97.5q0 -103 -64.5 -162.5t-198.5 -59.5h-70v-241h-143v682z" />
    <glyph glyph-name="Q" unicode="Q" horiz-adv-x="789" 
d="M543 10q-69 -32 -149 -32q-94 0 -162.5 33t-112.5 85.5t-65.5 117t-21.5 127.5q0 73 27 138.5t75.5 115.5t115 79.5t145.5 29.5q84 0 151 -30t113.5 -80.5t71 -116t24.5 -136.5q0 -78 -30 -146t-82 -118l91 -112l-94 -75zM177 341q0 -50 16.5 -93t45.5 -74.5t68.5 -49.5
t85.5 -18q33 0 65 12l-89 109l94 75l93 -116q25 31 39 70t14 85q0 49 -15.5 92t-43.5 74.5t-67.5 50t-88.5 18.5q-46 0 -85.5 -18t-69 -49.5t-46 -74.5t-16.5 -93z" />
    <glyph glyph-name="R" unicode="R" horiz-adv-x="606" 
d="M611 0h-170l-185 268h-45v-268h-143v682h212q72 0 121.5 -17t80 -45.5t44 -66t13.5 -79.5q0 -37 -11 -67.5t-29.5 -54t-44 -40t-54.5 -24.5zM392 468q0 47 -27 73t-78 26h-76v-194h77q49 0 76.5 26t27.5 69z" />
    <glyph glyph-name="S" unicode="S" horiz-adv-x="562" 
d="M366 504q-3 38 -25 61t-60 23q-34 0 -56 -20t-22 -53q0 -38 32 -59.5t86 -38.5q105 -35 149 -92.5t44 -134.5q0 -37 -14 -75t-42.5 -68.5t-72 -49.5t-103.5 -19q-51 0 -93.5 14.5t-73.5 43t-50 69.5t-23 94h141q5 -48 29 -76.5t72 -28.5q42 0 66 26t24 62q0 43 -29 69
t-94 47q-102 34 -144 89.5t-42 125.5q0 43 17 78.5t46 60.5t69 38.5t85 13.5q49 0 88.5 -14.5t68 -40.5t44.5 -63t18 -82h-135z" />
    <glyph glyph-name="T" unicode="T" horiz-adv-x="485" 
d="M170 558h-162v124h469v-124h-163v-558h-144v558z" />
    <glyph glyph-name="U" unicode="U" horiz-adv-x="635" 
d="M318 -22q-54 0 -101 15.5t-82.5 50t-56 90t-20.5 136.5v412h143v-423q0 -75 30.5 -117t85.5 -42q34 0 56.5 12.5t36 34t19.5 50.5t6 62v423h142v-410q0 -79 -19 -135t-53.5 -91t-82 -51.5t-104.5 -16.5z" />
    <glyph glyph-name="V" unicode="V" horiz-adv-x="627" 
d="M376 0h-129l-248 682h153l121 -364q10 -29 22 -71t20 -76h3q8 36 20 77t22 71l122 363h148z" />
    <glyph glyph-name="W" unicode="W" horiz-adv-x="871" 
d="M462 359q-8 38 -13.5 73t-8.5 72h-4q-5 -37 -9.5 -70.5t-13.5 -71.5l-78 -362h-152l-175 682h142l85 -371q6 -25 10 -43t6.5 -32.5t4.5 -27.5l4 -26h4q5 32 12 68t15 70l81 362h135l87 -369q11 -43 15.5 -71.5t9.5 -59.5h4q5 35 10.5 68t11.5 62l79 370h139l-165 -682
h-154z" />
    <glyph glyph-name="X" unicode="X" horiz-adv-x="615" 
d="M262 534q14 -22 25.5 -41t22.5 -39h3q12 22 23 41.5t25 40.5l92 146h152l-222 -325l232 -357h-158l-97 157q-14 23 -27.5 46.5t-27.5 46.5h-2q-14 -23 -28 -47.5t-28 -47.5l-95 -155h-152l232 351l-224 331h159z" />
    <glyph glyph-name="Y" unicode="Y" horiz-adv-x="598" 
d="M228 272l-221 410h155l105 -203q11 -22 20.5 -43.5t15.5 -41.5h2q8 21 17 41t20 43l99 204h150l-220 -409v-273h-143v272z" />
    <glyph glyph-name="Z" unicode="Z" horiz-adv-x="619" 
d="M55 682h510v-117l-348 -441h364v-124h-543v116l347 442h-330v124z" />
    <glyph glyph-name="bracketleft" unicode="[" horiz-adv-x="373" 
d="M315 620h-106v-713h106v-107h-228v928h228v-108z" />
    <glyph glyph-name="backslash" unicode="\" horiz-adv-x="432" 
d="M329 -114l-320 834h117l319 -834h-116z" />
    <glyph glyph-name="bracketright" unicode="]" horiz-adv-x="373" 
d="M58 728h228v-928h-228v107h106v713h-106v108z" />
    <glyph glyph-name="asciicircum" unicode="^" horiz-adv-x="666" 
d="M494 326l-160 269h-3l-160 -269h-120l230 378h103l230 -378h-120z" />
    <glyph glyph-name="underscore" unicode="_" horiz-adv-x="550" 
d="M0 -142h550v-96h-550v96z" />
    <glyph glyph-name="grave" unicode="`" horiz-adv-x="322" 
d="M93 764l159 -137l-54 -72l-171 122z" />
    <glyph glyph-name="a" unicode="a" horiz-adv-x="602" 
d="M538 0h-130v60h-4q-23 -31 -60 -53.5t-96 -22.5q-35 0 -73.5 14.5t-70.5 45.5t-53 79.5t-21 116.5q0 58 18.5 104.5t50 79.5t72.5 50.5t87 17.5q28 0 50.5 -6.5t40.5 -17t31.5 -24t23.5 -27.5h4v62h130v-479zM167 239q0 -26 7.5 -51t22.5 -44.5t38 -31t55 -11.5
q24 0 45.5 10t38 28t26.5 43.5t10 55.5q0 31 -9 57t-25 44t-38 28t-47 10q-32 0 -55 -12t-38.5 -31.5t-23 -44t-7.5 -50.5z" />
    <glyph glyph-name="b" unicode="b" horiz-adv-x="602" 
d="M64 720h130v-298h4q11 12 26 24.5t34 22.5t43.5 16.5t54.5 6.5q35 0 73 -15t70 -46t52.5 -79.5t20.5 -114.5q0 -59 -19 -106t-50.5 -79.5t-72.5 -50t-84 -17.5q-53 0 -88.5 20t-57.5 49h-4v-53h-132v720zM435 237q0 27 -7.5 52t-23 44t-39 30.5t-54.5 11.5q-24 0 -46 -10
t-38 -28t-25.5 -43.5t-9.5 -56.5t9.5 -56.5t26 -43.5t38 -28t46.5 -10q31 0 54 12t38.5 31.5t23 44t7.5 50.5z" />
    <glyph glyph-name="c" unicode="c" horiz-adv-x="549" 
d="M285 495q51 0 91 -16t68 -41.5t44.5 -56.5t22.5 -61h-134q-9 28 -33 44.5t-60 16.5q-55 0 -86 -39t-31 -102q0 -30 8 -55.5t23.5 -45t38 -30.5t51.5 -11q39 0 62 20t33 46h137q-10 -37 -29 -70t-48 -57.5t-68 -39t-89 -14.5q-53 0 -100 18t-81.5 52t-54.5 81.5t-20 106.5
q0 52 17.5 98.5t50.5 81t80.5 54.5t106.5 20z" />
    <glyph glyph-name="d" unicode="d" horiz-adv-x="602" 
d="M538 0h-130v52h-4q-23 -26 -62 -47.5t-95 -21.5q-35 0 -73 14.5t-70 46t-53 80t-21 116.5q0 57 18.5 104t49.5 80.5t72.5 52t86.5 18.5q54 0 88 -20t57 -51h4v296h132v-720zM167 239q0 -26 7.5 -51t23 -44.5t38.5 -31.5t54 -12q24 0 45.5 10t38 28.5t26.5 44t10 55.5
q0 31 -9 57.5t-25 45t-38 29t-47 10.5q-31 0 -54.5 -12.5t-39 -32.5t-23 -45t-7.5 -51z" />
    <glyph glyph-name="e" unicode="e" horiz-adv-x="553" 
d="M276 495q59 0 104.5 -20.5t76.5 -55t47 -80.5t16 -96v-17t-2 -19h-356q0 -25 10 -47t26.5 -39t39 -27t48.5 -10q33 0 56.5 13.5t39.5 36.5h131q-12 -30 -31 -57.5t-47 -48.5t-65.5 -33t-84.5 -12q-54 0 -100.5 18.5t-81 53t-54 82t-19.5 106.5q0 51 16.5 97t48 80.5
t77 54.5t104.5 20zM275 401q-25 0 -45 -8.5t-34 -22.5t-22.5 -32.5t-10.5 -38.5h224q-5 42 -34.5 72t-77.5 30z" />
    <glyph glyph-name="f" unicode="f" horiz-adv-x="326" 
d="M15 479h68v73q0 85 43.5 129.5t128.5 44.5q23 0 44.5 -3t38.5 -8v-111q-14 4 -27 6t-27 2q-36 0 -50.5 -18.5t-14.5 -50.5v-64h104v-114h-104v-365h-136v365h-68v114z" />
    <glyph glyph-name="g" unicode="g" horiz-adv-x="602" 
d="M539 15q0 -134 -62 -203t-195 -69q-101 0 -164 51t-77 141h135q8 -35 34.5 -58.5t79.5 -23.5q61 0 92 37t31 107v61h-3q-24 -29 -60.5 -49t-92.5 -20q-47 0 -88 17.5t-71.5 50.5t-48.5 79.5t-18 104.5q0 54 17.5 100.5t48.5 80t73.5 53t92.5 19.5q28 0 51 -6.5t41 -17
t31 -23.5t22 -26h5v58h126v-464zM168 242q0 -25 7 -49t22 -43t38 -31t55 -12q25 0 47.5 10t39 27.5t26 42t9.5 54.5q0 31 -9.5 56t-25.5 43t-38.5 27.5t-47.5 9.5q-30 0 -53 -11.5t-38.5 -30.5t-23.5 -43.5t-8 -49.5z" />
    <glyph glyph-name="h" unicode="h" horiz-adv-x="579" 
d="M62 720h135v-301h4q25 40 62.5 57.5t78.5 17.5q40 0 73.5 -13.5t57.5 -40.5t37.5 -68.5t13.5 -96.5v-275h-135v267q0 54 -24 81t-66 27q-45 0 -73.5 -30.5t-28.5 -91.5v-253h-135v720z" />
    <glyph glyph-name="i" unicode="i" horiz-adv-x="259" 
d="M62 479h135v-479h-135v479zM59 708h142v-129h-142v129z" />
    <glyph glyph-name="j" unicode="j" horiz-adv-x="259" 
d="M197 -34q0 -114 -49.5 -165.5t-134.5 -51.5q-30 0 -53.5 4t-40.5 10v114q9 -3 28 -6.5t39 -3.5q37 0 56.5 21t19.5 76v515h135v-513zM59 708h142v-129h-142v129z" />
    <glyph glyph-name="k" unicode="k" horiz-adv-x="536" 
d="M228 197l-31 -30v-167h-135v720h135v-403l152 162h164l-192 -197l221 -282h-163z" />
    <glyph glyph-name="l" unicode="l" horiz-adv-x="259" 
d="M62 720h135v-720h-135v720z" />
    <glyph glyph-name="m" unicode="m" horiz-adv-x="870" 
d="M62 479h133v-60h2q23 32 58 53.5t81 21.5q54 0 90.5 -26.5t50.5 -59.5q9 16 24 31.5t35.5 27.5t44.5 19.5t51 7.5q83 0 132 -55.5t49 -163.5v-275h-135v271q0 21 -4.5 39.5t-14.5 33t-25.5 23t-36.5 8.5q-18 0 -34.5 -7t-29 -21.5t-20.5 -36.5t-8 -53v-257h-135v271
q0 45 -21.5 74.5t-59.5 29.5q-42 0 -67 -30.5t-25 -87.5v-257h-135v479z" />
    <glyph glyph-name="n" unicode="n" horiz-adv-x="581" 
d="M62 479h133v-60h4q25 40 62.5 57.5t79.5 17.5q81 0 132 -54.5t51 -164.5v-275h-135v266q0 54 -24 81.5t-66 27.5q-45 0 -73.5 -31t-28.5 -91v-253h-135v479z" />
    <glyph glyph-name="o" unicode="o" horiz-adv-x="571" 
d="M30 240q0 55 19.5 102t54 81t81 53t101.5 19q57 0 104 -19.5t80.5 -53.5t52.5 -81t19 -101q0 -53 -19 -99.5t-53 -81.5t-81 -55.5t-103 -20.5q-55 0 -102 20t-81 54.5t-53.5 81.5t-19.5 101zM166 239q0 -30 9 -55t25.5 -43t38 -28t47.5 -10q55 0 87 39t32 97
q0 28 -8 52.5t-23 43t-37.5 29.5t-50.5 11q-57 0 -88.5 -38.5t-31.5 -97.5z" />
    <glyph glyph-name="p" unicode="p" horiz-adv-x="602" 
d="M64 479h130v-57h4q22 27 58 48.5t96 21.5q38 0 77 -16t71 -47.5t52 -79.5t20 -112q0 -57 -18.5 -104t-50 -80t-72.5 -51t-87 -18q-51 0 -86.5 20t-57.5 49h-4v-288h-132v714zM435 237q0 27 -7.5 52t-23 44t-39 30.5t-54.5 11.5q-24 0 -46 -10t-38 -28t-25.5 -43.5
t-9.5 -56.5t9.5 -56.5t26 -43.5t38 -28t46.5 -10q31 0 54 12t38.5 31.5t23 44t7.5 50.5z" />
    <glyph glyph-name="q" unicode="q" horiz-adv-x="602" 
d="M538 -235h-130v287h-4q-23 -27 -61.5 -48t-94.5 -21q-35 0 -73 14.5t-70.5 46t-53.5 80t-21 116.5q0 57 18 104t49.5 80.5t72.5 52t88 18.5q53 0 88 -21.5t56 -49.5h4v55h132v-714zM167 239q0 -26 7.5 -51t23 -44.5t38.5 -31.5t54 -12q24 0 45.5 10t38 28.5t26.5 44
t10 55.5q0 31 -9 57.5t-25 45t-38 29t-47 10.5q-31 0 -54.5 -12.5t-39 -32.5t-23 -45t-7.5 -51z" />
    <glyph glyph-name="r" unicode="r" horiz-adv-x="404" 
d="M381 363q-13 2 -28.5 4t-35.5 2q-60 0 -90 -35.5t-30 -100.5v-233h-135v479h132v-74h3q20 35 56 61.5t84 26.5q27 0 44 -4v-126z" />
    <glyph glyph-name="s" unicode="s" horiz-adv-x="441" 
d="M276 350q-2 26 -17 40t-38 14q-24 0 -36.5 -13t-12.5 -29q0 -10 3.5 -18.5t14 -17t29.5 -17.5t49 -19q76 -25 107 -63t31 -90q0 -33 -12.5 -61t-36 -49t-58 -32.5t-78.5 -11.5q-92 0 -136.5 43.5t-48.5 113.5h121q2 -29 18 -47t49 -18q26 0 40.5 15t14.5 36
q0 25 -20.5 42t-74.5 35q-68 22 -102.5 57t-34.5 92q0 32 12.5 58.5t35.5 45t54.5 29t70.5 10.5q80 0 123.5 -41t51.5 -104h-119z" />
    <glyph glyph-name="t" unicode="t" horiz-adv-x="344" 
d="M11 479h58v153h136v-153h113v-114h-113v-186q0 -42 14 -56.5t46 -14.5q14 0 29.5 2t28.5 6v-110q-21 -6 -47 -9.5t-47 -3.5q-45 0 -75.5 12t-49.5 34.5t-27 54.5t-8 71v200h-58v114z" />
    <glyph glyph-name="u" unicode="u" horiz-adv-x="570" 
d="M508 0h-134v60h-3q-29 -43 -65 -59.5t-75 -16.5q-29 0 -60 10t-56.5 34.5t-41.5 65t-16 101.5v284h135v-267q0 -53 23 -80.5t62 -27.5q45 0 70.5 30.5t25.5 90.5v254h135v-479z" />
    <glyph glyph-name="v" unicode="v" horiz-adv-x="461" 
d="M290 0h-120l-177 479h140l66 -208q10 -32 18.5 -65.5t13.5 -62.5h4q7 35 14 65.5t18 62.5l68 208h132z" />
    <glyph glyph-name="w" unicode="w" horiz-adv-x="725" 
d="M381 210q-5 23 -11 50.5t-8 53.5h-4q-3 -26 -9 -57.5t-14 -66.5l-44 -190h-156l-121 479h133l56 -241q7 -31 10.5 -51t7.5 -44h4q4 23 8 47.5t11 52.5l59 236h122l60 -240q7 -30 10 -51.5t6 -44.5h3q4 29 8 53.5t8 41.5l58 241h132l-125 -479h-156z" />
    <glyph glyph-name="x" unicode="x" horiz-adv-x="505" 
d="M179 242l-164 237h151l61 -98q8 -11 14.5 -25.5t11.5 -25.5h3q5 11 11 23.5t13 24.5l58 101h150l-164 -235l171 -244h-156l-63 103q-9 16 -15 29t-10 23h-4q-6 -14 -12.5 -26.5t-14.5 -26.5l-63 -102h-152z" />
    <glyph glyph-name="y" unicode="y" horiz-adv-x="467" 
d="M212 -235h-128l88 239l-174 475h140l69 -208q8 -26 17.5 -57.5t14.5 -60.5h4q7 35 14 60.5t17 57.5l67 208h133z" />
    <glyph glyph-name="z" unicode="z" horiz-adv-x="486" 
d="M45 479h395v-108l-235 -259h247v-112h-419v108l236 259h-224v112z" />
    <glyph glyph-name="braceleft" unicode="{" horiz-adv-x="383" 
d="M330 639q-41 -1 -58 -20.5t-17 -56.5v-169q0 -45 -21 -79.5t-64 -49.5v-2q38 -11 61.5 -45.5t23.5 -87.5v-165q0 -37 17 -56t58 -20v-103q-106 0 -152 45t-46 125v173q0 34 -21 58.5t-62 26.5v100q41 2 62 26.5t21 57.5v180q0 36 10.5 66t34 52t61.5 34.5t92 12.5v-103z
" />
    <glyph glyph-name="bar" unicode="|" horiz-adv-x="374" 
d="M135 -210v1000h102v-1000h-102z" />
    <glyph glyph-name="braceright" unicode="}" horiz-adv-x="383" 
d="M53 742q54 0 92 -12.5t61.5 -34.5t34 -52t10.5 -66v-180q0 -33 21 -57.5t62 -26.5v-100q-41 -2 -62 -26.5t-21 -58.5v-173q0 -89 -52.5 -129.5t-145.5 -40.5v103q41 1 58 20t17 56v165q0 53 23.5 87.5t61.5 45.5v2q-43 15 -64 49.5t-21 79.5v169q0 37 -17 56.5t-58 20.5
v103z" />
    <glyph glyph-name="asciitilde" unicode="~" horiz-adv-x="666" 
d="M631 294q-35 -60 -78 -92.5t-107 -32.5q-32 0 -64.5 10t-61.5 29q-31 21 -54.5 33t-48.5 12q-32 0 -54 -18.5t-47 -58.5l-82 52q33 64 77 95t104 31q37 0 67.5 -11.5t57.5 -28.5q35 -23 59.5 -34t49.5 -11q32 0 56 21t44 56l82 -52v0z" />
    <glyph glyph-name="uni00A0" unicode="&#xa0;" horiz-adv-x="250" 
 />
    <glyph glyph-name="exclamdown" unicode="&#xa1;" horiz-adv-x="276" 
d="M209 553h-142v129h142v-129zM64 0l14 470h120l14 -470h-148z" />
    <glyph glyph-name="cent" unicode="&#xa2;" 
d="M243 94q-42 9 -78.5 30t-63.5 53.5t-42.5 75t-15.5 94.5q0 46 14 87t39.5 74t62.5 56t84 32v86h100v-85q41 -7 72.5 -24.5t54 -41t36.5 -51t19 -54.5h-133q-9 27 -34 44t-61 17q-54 0 -85 -39t-31 -102q0 -30 8 -56t23.5 -45.5t37.5 -30.5t51 -11q40 0 63.5 20.5
t33.5 46.5h135q-18 -66 -65 -115.5t-125 -62.5v-92h-100v94z" />
    <glyph glyph-name="sterling" unicode="&#xa3;" 
d="M414 302h-152q4 -17 6.5 -35t2.5 -36q0 -32 -10.5 -54.5t-28.5 -38.5q17 0 36.5 -5.5t38.5 -11.5q22 -8 40 -14t35 -6q46 0 47 76h129q-2 -102 -45 -150.5t-121 -48.5q-31 0 -63 8.5t-66 19.5q-29 9 -55 16.5t-49 7.5q-29 0 -60 -10t-59 -27v118q27 7 46 19.5t31 28
t18 32.5t6 33q0 20 -3.5 40.5t-8.5 37.5h-89v102h61q-5 20 -10 48t-5 60q0 37 13 72t39 62t66.5 43t96.5 16q49 0 88.5 -15t67.5 -41t44 -63t18 -80h-136q-2 38 -24.5 61t-56.5 23q-39 0 -59 -25.5t-20 -66.5q0 -24 4 -48t9 -46h178v-102z" />
    <glyph glyph-name="currency" unicode="&#xa4;" horiz-adv-x="612" 
d="M489 112l-68 68q-26 -17 -56 -25.5t-60 -8.5q-26 0 -56 7.5t-59 26.5l-69 -68l-61 63l69 66q-18 29 -26 58t-8 55t7.5 55t26.5 57q-9 8 -20.5 20t-22.5 23q-12 12 -26 25l61 62l69 -67q29 19 59 26t56 7q28 0 58.5 -8t56.5 -25l69 67l62 -62l-69 -68q20 -29 27 -59t7 -53
q0 -26 -7.5 -54.5t-26.5 -58.5l69 -66zM428 355q0 26 -10.5 48.5t-27.5 38.5t-39 25t-45 9q-26 0 -48.5 -9.5t-39 -26t-26 -38.5t-9.5 -47t9.5 -47.5t26 -39t39 -26t47.5 -9.5t47.5 9.5t39.5 26t26.5 39t9.5 47.5z" />
    <glyph glyph-name="yen" unicode="&#xa5;" 
d="M49 371h128l-164 311h145l94 -190q11 -22 21 -43.5t16 -41.5h2q8 21 17 41t20 43l91 191h141l-164 -311h128v-97h-169v-69h169v-96h-169v-109h-136v109h-170v96h170v69h-170v97z" />
    <glyph glyph-name="brokenbar" unicode="&#xa6;" horiz-adv-x="374" 
d="M135 390v300h102v-300h-102zM135 -110v300h102v-300h-102z" />
    <glyph glyph-name="section" unicode="&#xa7;" horiz-adv-x="445" 
d="M399 331q0 -42 -19 -70t-51 -45q26 -20 42.5 -50.5t16.5 -68.5q0 -30 -10 -56.5t-31 -46.5t-53 -32t-76 -12q-80 0 -123.5 40t-49.5 110h111q2 -29 17.5 -46t47.5 -17q29 0 45 17t16 40q0 18 -8 31t-21 23.5t-30 18.5t-35 16q-28 12 -52 26.5t-42 33.5t-28.5 42.5
t-10.5 53.5q0 41 19.5 69.5t51.5 42.5q-29 21 -45 49.5t-16 66.5q0 28 10.5 52.5t31.5 43.5t51.5 30t70.5 11q69 0 111 -38.5t45 -100.5h-102q-2 20 -16.5 35t-40.5 15q-28 0 -41.5 -15t-13.5 -33q0 -15 5.5 -26t18 -20.5t32.5 -19.5t49 -22q27 -11 49.5 -25t39 -31.5
t25.5 -40t9 -51.5zM296 323q0 28 -23.5 45t-68.5 33q-18 -4 -32.5 -17.5t-14.5 -35.5q0 -29 22.5 -46t71.5 -37q20 7 32.5 22.5t12.5 35.5z" />
    <glyph glyph-name="dieresis" unicode="&#xa8;" horiz-adv-x="322" 
d="M12 703h114v-112h-114v112zM196 703h114v-112h-114v112z" />
    <glyph glyph-name="copyright" unicode="&#xa9;" horiz-adv-x="820" 
d="M409 557q42 0 74 -13.5t54.5 -34.5t36.5 -47t20 -51h-101q-8 27 -31 42t-55 15q-51 0 -78.5 -34t-27.5 -88q0 -53 28.5 -88t80.5 -35q32 0 55.5 18t31.5 48h101q-9 -32 -25.5 -60t-40.5 -49t-55 -33t-68 -12q-46 0 -83.5 16t-64.5 44.5t-41.5 67.5t-14.5 85
q0 45 15.5 83.5t43 66t64.5 43.5t81 16zM47 341q0 75 28.5 141t78 115.5t115.5 78t141 28.5t141.5 -28.5t115.5 -78t77.5 -115.5t28.5 -141t-28.5 -141t-77.5 -115.5t-115.5 -78t-141.5 -28.5t-141 28.5t-115.5 78t-78 115.5t-28.5 141zM111 341q0 -62 23.5 -116t64.5 -94.5
t95 -64t116 -23.5t116.5 23.5t95 64t63.5 94.5t23 116q0 61 -23 115.5t-63.5 95t-95 64t-116.5 23.5t-116 -23.5t-95 -64t-64.5 -95t-23.5 -115.5z" />
    <glyph glyph-name="ordfeminine" unicode="&#xaa;" horiz-adv-x="390" 
d="M367 328q-14 -7 -41 -7t-48 14t-26 40q-19 -28 -49.5 -42.5t-63.5 -14.5q-29 0 -50.5 8.5t-35.5 22.5t-21 32.5t-7 38.5q0 60 54.5 100t162.5 49v4q0 57 -55 57q-56 0 -63 -39h-88q8 51 49.5 82t104.5 31q68 0 106.5 -35t38.5 -108v-117q0 -39 19 -39q5 0 13 2v-79z
M242 500q-65 -5 -93 -25t-28 -45q0 -17 11 -26.5t32 -9.5q33 0 55.5 24t22.5 64v18z" />
    <glyph glyph-name="guillemotleft" unicode="&#xab;" horiz-adv-x="502" 
d="M378 458l82 -44l-86 -166l86 -166l-82 -45l-130 211zM176 458l82 -44l-86 -166l86 -166l-82 -45l-130 211z" />
    <glyph glyph-name="logicalnot" unicode="&#xac;" horiz-adv-x="672" 
d="M491 98v190h-415v102h519v-292h-104z" />
    <glyph glyph-name="uni00AD" unicode="&#xad;" horiz-adv-x="465" 
d="M77 211v105h322v-105h-322z" />
    <glyph glyph-name="registered" unicode="&#xae;" horiz-adv-x="508" 
d="M33 482q0 46 17.5 86.5t48 70.5t71 47.5t85.5 17.5q46 0 86 -17.5t70 -47.5t47 -70.5t17 -86.5t-17 -86t-47 -70t-70 -47.5t-86 -17.5q-45 0 -85.5 17.5t-71 47.5t-48 70t-17.5 86zM82 482q0 -36 13.5 -67t37 -54.5t55 -36.5t67.5 -13t67 13t54.5 36.5t36.5 54.5t13 67
t-13 67t-36.5 54.5t-54.5 37t-67 13.5t-67.5 -13.5t-55 -37t-37 -54.5t-13.5 -67zM372 367h-74l-55 80h-13v-80h-66v236h103q49 0 71.5 -23t22.5 -54q0 -26 -14.5 -45t-37.5 -26zM293 523q0 14 -8.5 22.5t-31.5 8.5h-23v-60h23q40 0 40 29z" />
    <glyph glyph-name="macron" unicode="&#xaf;" horiz-adv-x="322" 
d="M14 593v90h293v-90h-293z" />
    <glyph glyph-name="degree" unicode="&#xb0;" horiz-adv-x="375" 
d="M51 559q0 28 10.5 53t29.5 43.5t43.5 29.5t53.5 11q28 0 53 -11t44 -29.5t29.5 -43.5t10.5 -53t-10.5 -53t-29.5 -43.5t-44 -29.5t-53 -11q-29 0 -53.5 11t-43.5 29.5t-29.5 43.5t-10.5 53zM113 559q0 -32 21.5 -53.5t53.5 -21.5q31 0 52.5 21.5t21.5 53.5t-21.5 53.5
t-52.5 21.5q-32 0 -53.5 -21.5t-21.5 -53.5z" />
    <glyph glyph-name="plusminus" unicode="&#xb1;" horiz-adv-x="672" 
d="M77 0v102h517v-102h-517zM387 318v-170h-103v170h-207v103h207v171h103v-171h207v-103h-207z" />
    <glyph glyph-name="uni00B2" unicode="&#xb2;" horiz-adv-x="406" 
d="M54 494l135 144q23 26 41.5 51t18.5 51q0 20 -13 32.5t-34 12.5q-26 0 -37.5 -16t-12.5 -42h-103q0 29 9.5 55.5t28.5 46.5t49 31.5t71 11.5q34 0 62 -10t48 -27t31 -41t11 -51q0 -21 -5.5 -39t-17.5 -37t-31 -41t-45 -49l-61 -63h166v-89h-311v69z" />
    <glyph glyph-name="uni00B3" unicode="&#xb3;" horiz-adv-x="406" 
d="M47 740q2 60 41.5 96t111.5 36q75 0 113.5 -32t38.5 -82q0 -36 -21 -61t-52 -32v-3q42 -11 64.5 -40t22.5 -71q0 -27 -10.5 -52.5t-31.5 -45t-52.5 -31t-73.5 -11.5q-81 0 -120.5 38.5t-43.5 104.5h102q5 -61 63 -61q27 0 43.5 18t16.5 48q0 23 -16.5 40.5t-54.5 17.5
h-31v79h30q29 0 43 13.5t14 35.5q0 17 -12 31t-35 14q-25 0 -36 -15.5t-12 -34.5h-102z" />
    <glyph glyph-name="acute" unicode="&#xb4;" horiz-adv-x="322" 
d="M228 764l66 -87l-170 -122l-55 72z" />
    <glyph glyph-name="mu" unicode="&#xb5;" horiz-adv-x="584" 
d="M57 479h135v-267q0 -52 20.5 -80t61.5 -28q45 0 71.5 31t26.5 97v247h136v-315q0 -30 8 -40.5t26 -10.5q11 0 22 3v-119q-13 -4 -30 -6.5t-33 -2.5q-54 0 -81.5 19t-36.5 56h-3q-20 -40 -51.5 -59.5t-69.5 -19.5q-18 0 -39.5 6t-35.5 17l-3 -2q7 -27 9 -59t2 -63v-96
h-135v692z" />
    <glyph glyph-name="paragraph" unicode="&#xb6;" horiz-adv-x="554" 
d="M440 597v-597h-96v597h-67v-597h-96v372q-34 1 -62 13t-48.5 33t-32 49.5t-11.5 61.5q0 37 13.5 65.5t36 48t52 29.5t62.5 10h308v-85h-59z" />
    <glyph glyph-name="periodcentered" unicode="&#xb7;" horiz-adv-x="276" 
d="M59 427h162v-152h-162v152z" />
    <glyph glyph-name="cedilla" unicode="&#xb8;" horiz-adv-x="322" 
d="M202 0l-16 -39q44 -7 67.5 -35.5t23.5 -63.5q0 -48 -32 -79.5t-101 -31.5q-28 0 -59 6t-51 13l26 75q11 -5 33.5 -9.5t39.5 -4.5q49 0 49 30q0 19 -22.5 30t-70.5 11l38 98h75z" />
    <glyph glyph-name="uni00B9" unicode="&#xb9;" horiz-adv-x="406" 
d="M158 771h-68v88h174v-434h-106v346z" />
    <glyph glyph-name="ordmasculine" unicode="&#xba;" horiz-adv-x="448" 
d="M28 512q0 44 15.5 79.5t42 60.5t62 38.5t76.5 13.5q43 0 79 -14.5t62 -40t40.5 -61t14.5 -76.5t-14.5 -76.5t-40.5 -61.5t-62 -41t-79 -15q-41 0 -76.5 13.5t-62 39t-42 61t-15.5 80.5zM128 511q0 -44 27 -73t69 -29t69 28.5t27 73.5q0 44 -27 73t-69 29q-40 0 -68 -25.5
t-28 -76.5z" />
    <glyph glyph-name="guillemotright" unicode="&#xbb;" horiz-adv-x="502" 
d="M125 37l-83 45l86 166l-86 165l83 45l130 -210zM327 37l-83 45l86 166l-86 165l83 45l130 -210z" />
    <glyph glyph-name="onequarter" unicode="&#xbc;" horiz-adv-x="945" 
d="M158 596h-68v88h174v-434h-106v346zM761 682l-468 -682h-97l468 682h97zM857 68v-68h-102v68h-197v75l197 291h102v-289h62v-77h-62zM640 145h115v125q0 19 0.5 27t1.5 22h-3q-6 -13 -17 -30.5t-19 -30.5z" />
    <glyph glyph-name="onehalf" unicode="&#xbd;" horiz-adv-x="982" 
d="M158 596h-68v88h174v-434h-106v346zM761 682l-468 -682h-97l468 682h97zM630 69l135 144q23 26 41.5 51t18.5 51q0 20 -13 32.5t-34 12.5q-26 0 -37.5 -16t-12.5 -42h-103q0 29 9.5 55.5t28.5 46.5t49 31.5t71 11.5q34 0 62 -10t48 -27t31 -41t11 -51q0 -21 -5.5 -39
t-17.5 -37t-31 -41t-45 -49l-61 -63h166v-89h-311v69z" />
    <glyph glyph-name="threequarters" unicode="&#xbe;" horiz-adv-x="968" 
d="M47 565q2 60 41.5 96t111.5 36q75 0 113.5 -32t38.5 -82q0 -36 -21 -61t-52 -32v-3q42 -11 64.5 -40t22.5 -71q0 -27 -10.5 -52.5t-31.5 -45t-52.5 -31t-73.5 -11.5q-81 0 -120.5 38.5t-43.5 104.5h102q5 -61 63 -61q27 0 43.5 18t16.5 48q0 23 -16.5 40.5t-54.5 17.5
h-31v79h30q29 0 43 13.5t14 35.5q0 17 -12 31t-35 14q-25 0 -36 -15.5t-12 -34.5h-102zM785 682l-468 -682h-97l468 682h97zM880 68v-68h-102v68h-197v75l197 291h102v-289h62v-77h-62zM663 145h115v125q0 19 0.5 27t1.5 22h-3q-6 -13 -17 -30.5t-19 -30.5z" />
    <glyph glyph-name="questiondown" unicode="&#xbf;" horiz-adv-x="467" 
d="M130 356q25 23 36 48.5t11 65.5h120q0 -27 -2 -49.5t-7 -41.5t-14.5 -36t-25.5 -34l-35 -38.5t-25.5 -31.5t-16 -31t-5.5 -36q0 -31 20.5 -52t52.5 -21t54 23t22 66h133q-1 -48 -16 -87t-42.5 -66.5t-66.5 -42t-88 -14.5t-88 14.5t-66 39.5t-41.5 59t-14.5 73
q0 59 27.5 104t77.5 88zM308 553h-141v129h141v-129z" />
    <glyph glyph-name="Agrave" unicode="&#xc0;" horiz-adv-x="664" 
d="M272 682h134l251 -682h-147l-53 155h-252l-54 -155h-144zM239 257h183l-56 163q-10 29 -17.5 53.5t-14.5 50.5h-5q-14 -53 -33 -105zM244 910l189 -95l-37 -83l-196 78z" />
    <glyph glyph-name="Aacute" unicode="&#xc1;" horiz-adv-x="664" 
d="M272 682h134l251 -682h-147l-53 155h-252l-54 -155h-144zM239 257h183l-56 163q-10 29 -17.5 53.5t-14.5 50.5h-5q-14 -53 -33 -105zM481 810l-196 -78l-37 83l188 95z" />
    <glyph glyph-name="Acircumflex" unicode="&#xc2;" horiz-adv-x="664" 
d="M272 682h134l251 -682h-147l-53 155h-252l-54 -155h-144zM239 257h183l-56 163q-10 29 -17.5 53.5t-14.5 50.5h-5q-14 -53 -33 -105zM506 803l-35 -71l-130 60l-131 -60l-35 71l166 103z" />
    <glyph glyph-name="Atilde" unicode="&#xc3;" horiz-adv-x="664" 
d="M272 682h134l251 -682h-147l-53 155h-252l-54 -155h-144zM239 257h183l-56 163q-10 29 -17.5 53.5t-14.5 50.5h-5q-14 -53 -33 -105zM166 767q2 62 29 100t78 38q21 0 38 -7t37 -21q20 -15 34 -21t25 -6t20 8.5t10 36.5h79q-3 -70 -31 -103.5t-79 -33.5q-23 0 -41.5 7
t-37.5 21q-21 15 -32 21t-21 6q-12 0 -20 -11.5t-9 -34.5h-79z" />
    <glyph glyph-name="Adieresis" unicode="&#xc4;" horiz-adv-x="664" 
d="M272 682h134l251 -682h-147l-53 155h-252l-54 -155h-144zM239 257h183l-56 163q-10 29 -17.5 53.5t-14.5 50.5h-5q-14 -53 -33 -105zM190 883h114v-112h-114v112zM374 883h114v-112h-114v112z" />
    <glyph glyph-name="Aring" unicode="&#xc5;" horiz-adv-x="664" 
d="M272 682h134l251 -682h-147l-53 155h-252l-54 -155h-144zM239 257h183l-56 163q-10 29 -17.5 53.5t-14.5 50.5h-5q-14 -53 -33 -105zM284 844q0 -23 16.5 -39.5t39.5 -16.5t39.5 16.5t16.5 39.5t-16.5 39.5t-39.5 16.5t-39.5 -16.5t-16.5 -39.5zM211 844q0 27 10 50.5
t27 41t41 27.5t51 10t50.5 -10t41.5 -27.5t28 -41t10 -50.5t-10 -50.5t-28 -41.5t-41.5 -28t-50.5 -10t-51 10t-41 28t-27 41.5t-10 50.5z" />
    <glyph glyph-name="AE" unicode="&#xc6;" horiz-adv-x="915" 
d="M847 558h-257v-147h247v-118h-247v-169h267v-124h-407v155h-220l-79 -155h-158l372 682h482v-124zM278 257h172v301h-15z" />
    <glyph glyph-name="Ccedilla" unicode="&#xc7;" horiz-adv-x="765" 
d="M387 704q71 0 127.5 -21.5t97.5 -56t66 -77t34 -85.5h-154q-7 23 -21.5 44.5t-36.5 38t-51 26t-63 9.5q-45 0 -83 -17.5t-65.5 -49t-43 -76t-15.5 -97.5q0 -49 15 -93t42.5 -77t66 -52.5t85.5 -19.5q37 0 66.5 11t51.5 29t36.5 41t22.5 48h159q-15 -49 -41.5 -92
t-65 -76.5t-88.5 -55t-113 -25.5l-7 -19q44 -7 67.5 -35.5t23.5 -63.5q0 -48 -32 -79.5t-100 -31.5q-28 0 -59.5 6t-51.5 13l26 75q11 -5 34 -9.5t40 -4.5q48 0 48 30q0 19 -22.5 30t-70.5 11l30 79q-70 7 -127 37t-97.5 78t-62.5 111t-22 136q0 78 26.5 144t73.5 114.5
t112 75.5t142 27z" />
    <glyph glyph-name="Egrave" unicode="&#xc8;" horiz-adv-x="544" 
d="M475 558h-264v-147h255v-118h-255v-169h275v-124h-418v682h407v-124zM185 910l189 -95l-37 -83l-196 78z" />
    <glyph glyph-name="Eacute" unicode="&#xc9;" horiz-adv-x="544" 
d="M475 558h-264v-147h255v-118h-255v-169h275v-124h-418v682h407v-124zM407 810l-196 -78l-37 83l188 95z" />
    <glyph glyph-name="Ecircumflex" unicode="&#xca;" horiz-adv-x="544" 
d="M475 558h-264v-147h255v-118h-255v-169h275v-124h-418v682h407v-124zM440 803l-35 -71l-130 60l-131 -60l-35 71l166 103z" />
    <glyph glyph-name="Edieresis" unicode="&#xcb;" horiz-adv-x="544" 
d="M475 558h-264v-147h255v-118h-255v-169h275v-124h-418v682h407v-124zM123 883h114v-112h-114v112zM307 883h114v-112h-114v112z" />
    <glyph glyph-name="Igrave" unicode="&#xcc;" horiz-adv-x="278" 
d="M68 682h143v-682h-143v682zM45 910l189 -95l-37 -83l-196 78z" />
    <glyph glyph-name="Iacute" unicode="&#xcd;" horiz-adv-x="278" 
d="M68 682h143v-682h-143v682zM281 810l-196 -78l-37 83l188 95z" />
    <glyph glyph-name="Icircumflex" unicode="&#xce;" horiz-adv-x="278" 
d="M68 682h143v-682h-143v682zM306 803l-35 -71l-130 60l-131 -60l-35 71l166 103z" />
    <glyph glyph-name="Idieresis" unicode="&#xcf;" horiz-adv-x="278" 
d="M68 682h143v-682h-143v682zM-8 883h114v-112h-114v112zM176 883h114v-112h-114v112z" />
    <glyph glyph-name="Eth" unicode="&#xd0;" horiz-adv-x="735" 
d="M15 404h78v278h234q92 0 162 -27t117.5 -73.5t71.5 -108.5t24 -132q0 -69 -25 -131t-73.5 -108.5t-118.5 -74t-160 -27.5h-232v297h-78v107zM322 123q60 0 104.5 17.5t73 47.5t42.5 69.5t14 83.5q0 48 -15 88t-44 69t-73 45t-102 16h-86v-155h150v-107h-150v-174h86z" />
    <glyph glyph-name="Ntilde" unicode="&#xd1;" horiz-adv-x="678" 
d="M187 468q0 -12 1 -29.5t1.5 -35.5t1 -35t0.5 -29v-339h-123v682h123l190 -293q24 -36 40.5 -63.5t29 -49t21 -38t15.5 -29.5h3q0 13 -0.5 29.5t-1 33.5t-1 33t-0.5 27v350h123v-682h-123l-174 267q-29 46 -49 78t-33.5 55t-23 39t-16.5 29h-4zM162 767q2 62 29 100t78 38
q21 0 38 -7t37 -21q20 -15 34 -21t25 -6t20 8.5t10 36.5h79q-3 -70 -31 -103.5t-79 -33.5q-23 0 -41.5 7t-37.5 21q-21 15 -32 21t-21 6q-12 0 -20 -11.5t-9 -34.5h-79z" />
    <glyph glyph-name="Ograve" unicode="&#xd2;" horiz-adv-x="789" 
d="M179 341q0 -50 16.5 -93t45.5 -74.5t68 -49.5t85 -18t85.5 18t68.5 49.5t45.5 74.5t16.5 93q0 49 -15.5 92t-43.5 74.5t-67.5 50t-88.5 18.5q-46 0 -85.5 -18t-68.5 -49.5t-45.5 -74.5t-16.5 -93zM33 341q0 73 27 138.5t75.5 115.5t115 79.5t145.5 29.5q84 0 151 -30
t113.5 -80.5t71 -116t24.5 -136.5q0 -75 -27.5 -141t-75.5 -115.5t-114 -78t-144 -28.5q-94 0 -162 33t-112.5 85.5t-66 117t-21.5 127.5zM317 910l189 -95l-37 -83l-196 78z" />
    <glyph glyph-name="Oacute" unicode="&#xd3;" horiz-adv-x="789" 
d="M179 341q0 -50 16.5 -93t45.5 -74.5t68 -49.5t85 -18t85.5 18t68.5 49.5t45.5 74.5t16.5 93q0 49 -15.5 92t-43.5 74.5t-67.5 50t-88.5 18.5q-46 0 -85.5 -18t-68.5 -49.5t-45.5 -74.5t-16.5 -93zM33 341q0 73 27 138.5t75.5 115.5t115 79.5t145.5 29.5q84 0 151 -30
t113.5 -80.5t71 -116t24.5 -136.5q0 -75 -27.5 -141t-75.5 -115.5t-114 -78t-144 -28.5q-94 0 -162 33t-112.5 85.5t-66 117t-21.5 127.5zM529 810l-196 -78l-37 83l188 95z" />
    <glyph glyph-name="Ocircumflex" unicode="&#xd4;" horiz-adv-x="789" 
d="M179 341q0 -50 16.5 -93t45.5 -74.5t68 -49.5t85 -18t85.5 18t68.5 49.5t45.5 74.5t16.5 93q0 49 -15.5 92t-43.5 74.5t-67.5 50t-88.5 18.5q-46 0 -85.5 -18t-68.5 -49.5t-45.5 -74.5t-16.5 -93zM33 341q0 73 27 138.5t75.5 115.5t115 79.5t145.5 29.5q84 0 151 -30
t113.5 -80.5t71 -116t24.5 -136.5q0 -75 -27.5 -141t-75.5 -115.5t-114 -78t-144 -28.5q-94 0 -162 33t-112.5 85.5t-66 117t-21.5 127.5zM566 803l-35 -71l-130 60l-131 -60l-35 71l166 103z" />
    <glyph glyph-name="Otilde" unicode="&#xd5;" horiz-adv-x="789" 
d="M179 341q0 -50 16.5 -93t45.5 -74.5t68 -49.5t85 -18t85.5 18t68.5 49.5t45.5 74.5t16.5 93q0 49 -15.5 92t-43.5 74.5t-67.5 50t-88.5 18.5q-46 0 -85.5 -18t-68.5 -49.5t-45.5 -74.5t-16.5 -93zM33 341q0 73 27 138.5t75.5 115.5t115 79.5t145.5 29.5q84 0 151 -30
t113.5 -80.5t71 -116t24.5 -136.5q0 -75 -27.5 -141t-75.5 -115.5t-114 -78t-144 -28.5q-94 0 -162 33t-112.5 85.5t-66 117t-21.5 127.5zM226 767q2 62 29 100t78 38q21 0 38 -7t37 -21q20 -15 34 -21t25 -6t20 8.5t10 36.5h79q-3 -70 -31 -103.5t-79 -33.5q-23 0 -41.5 7
t-37.5 21q-21 15 -32 21t-21 6q-12 0 -20 -11.5t-9 -34.5h-79z" />
    <glyph glyph-name="Odieresis" unicode="&#xd6;" horiz-adv-x="789" 
d="M179 341q0 -50 16.5 -93t45.5 -74.5t68 -49.5t85 -18t85.5 18t68.5 49.5t45.5 74.5t16.5 93q0 49 -15.5 92t-43.5 74.5t-67.5 50t-88.5 18.5q-46 0 -85.5 -18t-68.5 -49.5t-45.5 -74.5t-16.5 -93zM33 341q0 73 27 138.5t75.5 115.5t115 79.5t145.5 29.5q84 0 151 -30
t113.5 -80.5t71 -116t24.5 -136.5q0 -75 -27.5 -141t-75.5 -115.5t-114 -78t-144 -28.5q-94 0 -162 33t-112.5 85.5t-66 117t-21.5 127.5zM252 883h114v-112h-114v112zM436 883h114v-112h-114v112z" />
    <glyph glyph-name="multiply" unicode="&#xd7;" horiz-adv-x="672" 
d="M515 8l-179 181l-183 -183l-73 72l183 183l-180 181l72 73l180 -181l182 182l73 -72l-182 -183l180 -180z" />
    <glyph glyph-name="Oslash" unicode="&#xd8;" horiz-adv-x="789" 
d="M33 341q0 73 27 138.5t75.5 115.5t115 79.5t145.5 29.5q62 0 114 -16.5t94 -45.5l90 97l75 -67l-92 -99q38 -49 58.5 -108.5t20.5 -123.5q0 -75 -27.5 -141t-75.5 -115.5t-114 -78t-144 -28.5q-66 0 -117.5 16t-92.5 44l-90 -98l-76 67l92 99q-40 52 -59 113.5t-19 121.5
zM173 341q0 -75 35 -130l308 334q-26 17 -56 27t-65 10q-47 0 -87.5 -18.5t-70.5 -50.5t-47 -76t-17 -96zM616 341q0 72 -34 129l-307 -334q53 -36 119 -36q48 0 88.5 18.5t70 50.5t46.5 76.5t17 95.5z" />
    <glyph glyph-name="Ugrave" unicode="&#xd9;" horiz-adv-x="635" 
d="M318 -22q-54 0 -101 15.5t-82.5 50t-56 90t-20.5 136.5v412h143v-423q0 -75 30.5 -117t85.5 -42q34 0 56.5 12.5t36 34t19.5 50.5t6 62v423h142v-410q0 -79 -19 -135t-53.5 -91t-82 -51.5t-104.5 -16.5zM225 910l189 -95l-37 -83l-196 78z" />
    <glyph glyph-name="Uacute" unicode="&#xda;" horiz-adv-x="635" 
d="M318 -22q-54 0 -101 15.5t-82.5 50t-56 90t-20.5 136.5v412h143v-423q0 -75 30.5 -117t85.5 -42q34 0 56.5 12.5t36 34t19.5 50.5t6 62v423h142v-410q0 -79 -19 -135t-53.5 -91t-82 -51.5t-104.5 -16.5zM454 810l-196 -78l-37 83l188 95z" />
    <glyph glyph-name="Ucircumflex" unicode="&#xdb;" horiz-adv-x="635" 
d="M318 -22q-54 0 -101 15.5t-82.5 50t-56 90t-20.5 136.5v412h143v-423q0 -75 30.5 -117t85.5 -42q34 0 56.5 12.5t36 34t19.5 50.5t6 62v423h142v-410q0 -79 -19 -135t-53.5 -91t-82 -51.5t-104.5 -16.5zM482 803l-35 -71l-130 60l-131 -60l-35 71l166 103z" />
    <glyph glyph-name="Udieresis" unicode="&#xdc;" horiz-adv-x="635" 
d="M318 -22q-54 0 -101 15.5t-82.5 50t-56 90t-20.5 136.5v412h143v-423q0 -75 30.5 -117t85.5 -42q34 0 56.5 12.5t36 34t19.5 50.5t6 62v423h142v-410q0 -79 -19 -135t-53.5 -91t-82 -51.5t-104.5 -16.5zM168 883h114v-112h-114v112zM352 883h114v-112h-114v112z" />
    <glyph glyph-name="Yacute" unicode="&#xdd;" horiz-adv-x="598" 
d="M228 272l-221 410h155l105 -203q11 -22 20.5 -43.5t15.5 -41.5h2q8 21 17 41t20 43l99 204h150l-220 -409v-273h-143v272zM443 810l-196 -78l-37 83l188 95z" />
    <glyph glyph-name="Thorn" unicode="&#xde;" horiz-adv-x="561" 
d="M68 682h143v-119h71q52 0 97.5 -12.5t78.5 -38.5t52 -65t19 -93q0 -102 -62.5 -158t-189.5 -56h-66v-140h-143v682zM384 352q0 42 -25.5 69t-79.5 27h-68v-193h66q30 0 50.5 7.5t33 20.5t18 31t5.5 38z" />
    <glyph glyph-name="germandbls" unicode="&#xdf;" horiz-adv-x="634" 
d="M521 554q0 -42 -20 -73t-65 -55q-37 -20 -50.5 -33t-13.5 -28q0 -9 3.5 -17t13.5 -15.5t28 -16.5t47 -20q42 -16 69 -34t42.5 -37.5t21.5 -41t6 -45.5q0 -31 -11 -59t-34 -49.5t-58 -34t-83 -12.5q-92 0 -136.5 44t-47.5 113h121q5 -65 66 -65q27 0 41.5 15t14.5 36
q0 26 -20 43.5t-73 37.5q-39 15 -65 31t-41.5 34t-22 39t-6.5 45q0 38 18.5 68.5t60.5 53.5q32 17 46.5 33t14.5 39q0 11 -4.5 23t-15 22t-27.5 16.5t-43 6.5q-53 0 -77 -30t-24 -90v-498h-135v502q0 56 17 98t48.5 69.5t76 41.5t98.5 14q48 0 88 -12.5t69.5 -35t45.5 -54
t16 -69.5z" />
    <glyph glyph-name="agrave" unicode="&#xe0;" horiz-adv-x="602" 
d="M538 0h-130v60h-4q-23 -31 -60 -53.5t-96 -22.5q-35 0 -73.5 14.5t-70.5 45.5t-53 79.5t-21 116.5q0 58 18.5 104.5t50 79.5t72.5 50.5t87 17.5q28 0 50.5 -6.5t40.5 -17t31.5 -24t23.5 -27.5h4v62h130v-479zM167 239q0 -26 7.5 -51t22.5 -44.5t38 -31t55 -11.5
q24 0 45.5 10t38 28t26.5 43.5t10 55.5q0 31 -9 57t-25 44t-38 28t-47 10q-32 0 -55 -12t-38.5 -31.5t-23 -44t-7.5 -50.5zM223 764l159 -137l-54 -72l-171 122z" />
    <glyph glyph-name="aacute" unicode="&#xe1;" horiz-adv-x="602" 
d="M538 0h-130v60h-4q-23 -31 -60 -53.5t-96 -22.5q-35 0 -73.5 14.5t-70.5 45.5t-53 79.5t-21 116.5q0 58 18.5 104.5t50 79.5t72.5 50.5t87 17.5q28 0 50.5 -6.5t40.5 -17t31.5 -24t23.5 -27.5h4v62h130v-479zM167 239q0 -26 7.5 -51t22.5 -44.5t38 -31t55 -11.5
q24 0 45.5 10t38 28t26.5 43.5t10 55.5q0 31 -9 57t-25 44t-38 28t-47 10q-32 0 -55 -12t-38.5 -31.5t-23 -44t-7.5 -50.5zM358 764l66 -87l-170 -122l-55 72z" />
    <glyph glyph-name="acircumflex" unicode="&#xe2;" horiz-adv-x="602" 
d="M538 0h-130v60h-4q-23 -31 -60 -53.5t-96 -22.5q-35 0 -73.5 14.5t-70.5 45.5t-53 79.5t-21 116.5q0 58 18.5 104.5t50 79.5t72.5 50.5t87 17.5q28 0 50.5 -6.5t40.5 -17t31.5 -24t23.5 -27.5h4v62h130v-479zM167 239q0 -26 7.5 -51t22.5 -44.5t38 -31t55 -11.5
q24 0 45.5 10t38 28t26.5 43.5t10 55.5q0 31 -9 57t-25 44t-38 28t-47 10q-32 0 -55 -12t-38.5 -31.5t-23 -44t-7.5 -50.5zM455 620l-48 -68l-116 77l-116 -77l-49 68l165 127z" />
    <glyph glyph-name="atilde" unicode="&#xe3;" horiz-adv-x="602" 
d="M538 0h-130v60h-4q-23 -31 -60 -53.5t-96 -22.5q-35 0 -73.5 14.5t-70.5 45.5t-53 79.5t-21 116.5q0 58 18.5 104.5t50 79.5t72.5 50.5t87 17.5q28 0 50.5 -6.5t40.5 -17t31.5 -24t23.5 -27.5h4v62h130v-479zM167 239q0 -26 7.5 -51t22.5 -44.5t38 -31t55 -11.5
q24 0 45.5 10t38 28t26.5 43.5t10 55.5q0 31 -9 57t-25 44t-38 28t-47 10q-32 0 -55 -12t-38.5 -31.5t-23 -44t-7.5 -50.5zM120 587q2 62 29 100t78 38q21 0 38 -7t37 -21q20 -15 34 -21t25 -6t20 8.5t10 36.5h79q-3 -70 -31 -103.5t-79 -33.5q-23 0 -41.5 7t-37.5 21
q-21 15 -32 21t-21 6q-12 0 -20 -11.5t-9 -34.5h-79z" />
    <glyph glyph-name="adieresis" unicode="&#xe4;" horiz-adv-x="602" 
d="M538 0h-130v60h-4q-23 -31 -60 -53.5t-96 -22.5q-35 0 -73.5 14.5t-70.5 45.5t-53 79.5t-21 116.5q0 58 18.5 104.5t50 79.5t72.5 50.5t87 17.5q28 0 50.5 -6.5t40.5 -17t31.5 -24t23.5 -27.5h4v62h130v-479zM167 239q0 -26 7.5 -51t22.5 -44.5t38 -31t55 -11.5
q24 0 45.5 10t38 28t26.5 43.5t10 55.5q0 31 -9 57t-25 44t-38 28t-47 10q-32 0 -55 -12t-38.5 -31.5t-23 -44t-7.5 -50.5zM142 703h114v-112h-114v112zM326 703h114v-112h-114v112z" />
    <glyph glyph-name="aring" unicode="&#xe5;" horiz-adv-x="602" 
d="M538 0h-130v60h-4q-23 -31 -60 -53.5t-96 -22.5q-35 0 -73.5 14.5t-70.5 45.5t-53 79.5t-21 116.5q0 58 18.5 104.5t50 79.5t72.5 50.5t87 17.5q28 0 50.5 -6.5t40.5 -17t31.5 -24t23.5 -27.5h4v62h130v-479zM167 239q0 -26 7.5 -51t22.5 -44.5t38 -31t55 -11.5
q24 0 45.5 10t38 28t26.5 43.5t10 55.5q0 31 -9 57t-25 44t-38 28t-47 10q-32 0 -55 -12t-38.5 -31.5t-23 -44t-7.5 -50.5zM236 659q0 -23 16.5 -39.5t39.5 -16.5t39.5 16.5t16.5 39.5t-16.5 39.5t-39.5 16.5t-39.5 -16.5t-16.5 -39.5zM163 659q0 27 10 50.5t27 41t41 27.5
t51 10t50.5 -10t41.5 -27.5t28 -41t10 -50.5t-10 -50.5t-28 -41.5t-41.5 -28t-50.5 -10t-51 10t-41 28t-27 41.5t-10 50.5z" />
    <glyph glyph-name="ae" unicode="&#xe6;" horiz-adv-x="858" 
d="M589 495q61 0 105.5 -22t73.5 -57.5t43 -80.5t14 -92q0 -13 -0.5 -20.5t-1.5 -12.5h-346q0 -25 8 -47.5t23 -40t37 -28t50 -10.5q33 0 54.5 13.5t34.5 36.5h132q-26 -67 -80 -109t-142 -42q-70 0 -118 26t-77 71q-33 -44 -78 -70.5t-113 -26.5q-47 0 -80.5 12.5
t-55.5 33.5t-32 48.5t-10 58.5q0 85 66 123.5t185 38.5h72v21q0 39 -25 61t-67 22q-45 0 -67.5 -17t-25.5 -40h-120q2 28 15.5 54.5t39 47.5t63.5 34t90 13q69 0 108.5 -20t57.5 -51q28 33 70 52.5t97 19.5zM587 401q-24 0 -43.5 -8.5t-33.5 -23t-22.5 -33t-9.5 -38.5h214
q-2 21 -9.5 39.5t-20.5 32.5t-32 22.5t-43 8.5zM282 210q-35 0 -59 -5t-38 -14.5t-20 -22.5t-6 -29q0 -32 18.5 -47t45.5 -15q28 0 51 10.5t39.5 28.5t27 42t12.5 52h-71z" />
    <glyph glyph-name="ccedilla" unicode="&#xe7;" horiz-adv-x="549" 
d="M285 495q51 0 91 -16t68 -41.5t44.5 -56.5t22.5 -61h-134q-9 28 -33 44.5t-60 16.5q-55 0 -86 -39t-31 -102q0 -30 8 -55.5t23.5 -45t38 -30.5t51.5 -11q39 0 62 20t33 46h137q-10 -34 -27 -65t-42 -55t-58.5 -39.5t-76.5 -19.5l-10 -24q44 -7 67.5 -35.5t23.5 -63.5
q0 -48 -32 -79.5t-101 -31.5q-28 0 -59 6t-51 13l26 75q11 -5 33.5 -9.5t39.5 -4.5q49 0 49 30q0 19 -22.5 30t-70.5 11l32 84q-44 6 -82.5 26.5t-67 53.5t-45 77t-16.5 98q0 52 17.5 98.5t50.5 81t80.5 54.5t106.5 20z" />
    <glyph glyph-name="egrave" unicode="&#xe8;" horiz-adv-x="553" 
d="M276 495q59 0 104.5 -20.5t76.5 -55t47 -80.5t16 -96v-17t-2 -19h-356q0 -25 10 -47t26.5 -39t39 -27t48.5 -10q33 0 56.5 13.5t39.5 36.5h131q-12 -30 -31 -57.5t-47 -48.5t-65.5 -33t-84.5 -12q-54 0 -100.5 18.5t-81 53t-54 82t-19.5 106.5q0 51 16.5 97t48 80.5
t77 54.5t104.5 20zM275 401q-25 0 -45 -8.5t-34 -22.5t-22.5 -32.5t-10.5 -38.5h224q-5 42 -34.5 72t-77.5 30zM208 764l159 -137l-54 -72l-171 122z" />
    <glyph glyph-name="eacute" unicode="&#xe9;" horiz-adv-x="553" 
d="M276 495q59 0 104.5 -20.5t76.5 -55t47 -80.5t16 -96v-17t-2 -19h-356q0 -25 10 -47t26.5 -39t39 -27t48.5 -10q33 0 56.5 13.5t39.5 36.5h131q-12 -30 -31 -57.5t-47 -48.5t-65.5 -33t-84.5 -12q-54 0 -100.5 18.5t-81 53t-54 82t-19.5 106.5q0 51 16.5 97t48 80.5
t77 54.5t104.5 20zM275 401q-25 0 -45 -8.5t-34 -22.5t-22.5 -32.5t-10.5 -38.5h224q-5 42 -34.5 72t-77.5 30zM343 764l66 -87l-170 -122l-55 72z" />
    <glyph glyph-name="ecircumflex" unicode="&#xea;" horiz-adv-x="553" 
d="M276 495q59 0 104.5 -20.5t76.5 -55t47 -80.5t16 -96v-17t-2 -19h-356q0 -25 10 -47t26.5 -39t39 -27t48.5 -10q33 0 56.5 13.5t39.5 36.5h131q-12 -30 -31 -57.5t-47 -48.5t-65.5 -33t-84.5 -12q-54 0 -100.5 18.5t-81 53t-54 82t-19.5 106.5q0 51 16.5 97t48 80.5
t77 54.5t104.5 20zM275 401q-25 0 -45 -8.5t-34 -22.5t-22.5 -32.5t-10.5 -38.5h224q-5 42 -34.5 72t-77.5 30zM440 620l-48 -68l-116 77l-116 -77l-49 68l165 127z" />
    <glyph glyph-name="edieresis" unicode="&#xeb;" horiz-adv-x="553" 
d="M276 495q59 0 104.5 -20.5t76.5 -55t47 -80.5t16 -96v-17t-2 -19h-356q0 -25 10 -47t26.5 -39t39 -27t48.5 -10q33 0 56.5 13.5t39.5 36.5h131q-12 -30 -31 -57.5t-47 -48.5t-65.5 -33t-84.5 -12q-54 0 -100.5 18.5t-81 53t-54 82t-19.5 106.5q0 51 16.5 97t48 80.5
t77 54.5t104.5 20zM275 401q-25 0 -45 -8.5t-34 -22.5t-22.5 -32.5t-10.5 -38.5h224q-5 42 -34.5 72t-77.5 30zM127 703h114v-112h-114v112zM311 703h114v-112h-114v112z" />
    <glyph glyph-name="igrave" unicode="&#xec;" horiz-adv-x="259" 
d="M62 479h135v-479h-135v479zM64 764l159 -137l-54 -72l-171 122z" />
    <glyph glyph-name="iacute" unicode="&#xed;" horiz-adv-x="259" 
d="M62 479h135v-479h-135v479zM199 764l66 -87l-170 -122l-55 72z" />
    <glyph glyph-name="icircumflex" unicode="&#xee;" horiz-adv-x="259" 
d="M62 479h135v-479h-135v479zM296 620l-48 -68l-116 77l-116 -77l-49 68l165 127z" />
    <glyph glyph-name="idieresis" unicode="&#xef;" horiz-adv-x="259" 
d="M62 479h135v-479h-135v479zM-17 703h114v-112h-114v112zM167 703h114v-112h-114v112z" />
    <glyph glyph-name="eth" unicode="&#xf0;" horiz-adv-x="571" 
d="M131 586l81 47q-25 24 -50 45.5t-50 41.5h149q11 -7 24.5 -16.5t27.5 -20.5l83 50l45 -79l-59 -35q36 -38 65.5 -78.5t50.5 -85.5t32.5 -95.5t11.5 -108.5q0 -57 -19 -106t-53 -85t-81 -56.5t-103 -20.5q-55 0 -102 20t-81 54.5t-53.5 81.5t-19.5 101q0 55 20 101.5
t55 79.5t82 51.5t102 18.5q15 0 30.5 -3.5t26.5 -10.5l2 3q-14 20 -35 44.5t-38 41.5l-99 -58zM165 239q0 -30 9.5 -55t25.5 -43t38 -28t48 -10q27 0 49.5 10.5t38 28.5t24 43t8.5 54q0 28 -8 52.5t-23.5 43t-38 29.5t-50.5 11q-57 0 -89 -38.5t-32 -97.5z" />
    <glyph glyph-name="ntilde" unicode="&#xf1;" horiz-adv-x="581" 
d="M62 479h133v-60h4q25 40 62.5 57.5t79.5 17.5q81 0 132 -54.5t51 -164.5v-275h-135v266q0 54 -24 81.5t-66 27.5q-45 0 -73.5 -31t-28.5 -91v-253h-135v479zM121 587q2 62 29 100t78 38q21 0 38 -7t37 -21q20 -15 34 -21t25 -6t20 8.5t10 36.5h79q-3 -70 -31 -103.5
t-79 -33.5q-23 0 -41.5 7t-37.5 21q-21 15 -32 21t-21 6q-12 0 -20 -11.5t-9 -34.5h-79z" />
    <glyph glyph-name="ograve" unicode="&#xf2;" horiz-adv-x="571" 
d="M30 240q0 55 19.5 102t54 81t81 53t101.5 19q57 0 104 -19.5t80.5 -53.5t52.5 -81t19 -101q0 -53 -19 -99.5t-53 -81.5t-81 -55.5t-103 -20.5q-55 0 -102 20t-81 54.5t-53.5 81.5t-19.5 101zM166 239q0 -30 9 -55t25.5 -43t38 -28t47.5 -10q55 0 87 39t32 97
q0 28 -8 52.5t-23 43t-37.5 29.5t-50.5 11q-57 0 -88.5 -38.5t-31.5 -97.5zM230 764l159 -137l-54 -72l-171 122z" />
    <glyph glyph-name="oacute" unicode="&#xf3;" horiz-adv-x="571" 
d="M30 240q0 55 19.5 102t54 81t81 53t101.5 19q57 0 104 -19.5t80.5 -53.5t52.5 -81t19 -101q0 -53 -19 -99.5t-53 -81.5t-81 -55.5t-103 -20.5q-55 0 -102 20t-81 54.5t-53.5 81.5t-19.5 101zM166 239q0 -30 9 -55t25.5 -43t38 -28t47.5 -10q55 0 87 39t32 97
q0 28 -8 52.5t-23 43t-37.5 29.5t-50.5 11q-57 0 -88.5 -38.5t-31.5 -97.5zM344 764l66 -87l-170 -122l-55 72z" />
    <glyph glyph-name="ocircumflex" unicode="&#xf4;" horiz-adv-x="571" 
d="M30 240q0 55 19.5 102t54 81t81 53t101.5 19q57 0 104 -19.5t80.5 -53.5t52.5 -81t19 -101q0 -53 -19 -99.5t-53 -81.5t-81 -55.5t-103 -20.5q-55 0 -102 20t-81 54.5t-53.5 81.5t-19.5 101zM166 239q0 -30 9 -55t25.5 -43t38 -28t47.5 -10q55 0 87 39t32 97
q0 28 -8 52.5t-23 43t-37.5 29.5t-50.5 11q-57 0 -88.5 -38.5t-31.5 -97.5zM452 620l-48 -68l-116 77l-116 -77l-49 68l165 127z" />
    <glyph glyph-name="otilde" unicode="&#xf5;" horiz-adv-x="571" 
d="M30 240q0 55 19.5 102t54 81t81 53t101.5 19q57 0 104 -19.5t80.5 -53.5t52.5 -81t19 -101q0 -53 -19 -99.5t-53 -81.5t-81 -55.5t-103 -20.5q-55 0 -102 20t-81 54.5t-53.5 81.5t-19.5 101zM166 239q0 -30 9 -55t25.5 -43t38 -28t47.5 -10q55 0 87 39t32 97
q0 28 -8 52.5t-23 43t-37.5 29.5t-50.5 11q-57 0 -88.5 -38.5t-31.5 -97.5zM112 587q2 62 29 100t78 38q21 0 38 -7t37 -21q20 -15 34 -21t25 -6t20 8.5t10 36.5h79q-3 -70 -31 -103.5t-79 -33.5q-23 0 -41.5 7t-37.5 21q-21 15 -32 21t-21 6q-12 0 -20 -11.5t-9 -34.5h-79z
" />
    <glyph glyph-name="odieresis" unicode="&#xf6;" horiz-adv-x="571" 
d="M30 240q0 55 19.5 102t54 81t81 53t101.5 19q57 0 104 -19.5t80.5 -53.5t52.5 -81t19 -101q0 -53 -19 -99.5t-53 -81.5t-81 -55.5t-103 -20.5q-55 0 -102 20t-81 54.5t-53.5 81.5t-19.5 101zM166 239q0 -30 9 -55t25.5 -43t38 -28t47.5 -10q55 0 87 39t32 97
q0 28 -8 52.5t-23 43t-37.5 29.5t-50.5 11q-57 0 -88.5 -38.5t-31.5 -97.5zM139 703h114v-112h-114v112zM323 703h114v-112h-114v112z" />
    <glyph glyph-name="divide" unicode="&#xf7;" horiz-adv-x="672" 
d="M77 213v102h517v-102h-517zM409 456q0 -34 -22 -53.5t-50 -19.5q-30 0 -51.5 21.5t-21.5 49.5q0 31 20.5 52.5t52.5 21.5t52 -21t20 -51zM409 73q0 -33 -22 -54t-50 -21q-30 0 -51.5 22.5t-21.5 51.5t20.5 50.5t52.5 21.5t52 -21t20 -50z" />
    <glyph glyph-name="oslash" unicode="&#xf8;" horiz-adv-x="571" 
d="M30 240q0 55 19.5 102t54 81t81 53t101.5 19q38 0 71.5 -9t62.5 -26l63 71l66 -59l-62 -70q26 -33 40.5 -74t14.5 -88q0 -53 -19 -99.5t-53 -81.5t-81 -55.5t-103 -20.5q-38 0 -71.5 9t-62.5 26l-62 -70l-68 58l63 71q-26 33 -40.5 74t-14.5 89zM159 239q0 -20 5 -38
t13 -34l173 197q-28 17 -64 17q-60 0 -93.5 -40t-33.5 -102zM412 239q0 40 -17 72l-173 -196q28 -18 64 -18q29 0 52 11t39.5 30t25.5 45t9 56z" />
    <glyph glyph-name="ugrave" unicode="&#xf9;" horiz-adv-x="570" 
d="M508 0h-134v60h-3q-29 -43 -65 -59.5t-75 -16.5q-29 0 -60 10t-56.5 34.5t-41.5 65t-16 101.5v284h135v-267q0 -53 23 -80.5t62 -27.5q45 0 70.5 30.5t25.5 90.5v254h135v-479zM216 764l159 -137l-54 -72l-171 122z" />
    <glyph glyph-name="uacute" unicode="&#xfa;" horiz-adv-x="570" 
d="M508 0h-134v60h-3q-29 -43 -65 -59.5t-75 -16.5q-29 0 -60 10t-56.5 34.5t-41.5 65t-16 101.5v284h135v-267q0 -53 23 -80.5t62 -27.5q45 0 70.5 30.5t25.5 90.5v254h135v-479zM351 764l66 -87l-170 -122l-55 72z" />
    <glyph glyph-name="ucircumflex" unicode="&#xfb;" horiz-adv-x="570" 
d="M508 0h-134v60h-3q-29 -43 -65 -59.5t-75 -16.5q-29 0 -60 10t-56.5 34.5t-41.5 65t-16 101.5v284h135v-267q0 -53 23 -80.5t62 -27.5q45 0 70.5 30.5t25.5 90.5v254h135v-479zM448 620l-48 -68l-116 77l-116 -77l-49 68l165 127z" />
    <glyph glyph-name="udieresis" unicode="&#xfc;" horiz-adv-x="570" 
d="M508 0h-134v60h-3q-29 -43 -65 -59.5t-75 -16.5q-29 0 -60 10t-56.5 34.5t-41.5 65t-16 101.5v284h135v-267q0 -53 23 -80.5t62 -27.5q45 0 70.5 30.5t25.5 90.5v254h135v-479zM135 703h114v-112h-114v112zM319 703h114v-112h-114v112z" />
    <glyph glyph-name="yacute" unicode="&#xfd;" horiz-adv-x="467" 
d="M212 -235h-128l88 239l-174 475h140l69 -208q8 -26 17.5 -57.5t14.5 -60.5h4q7 35 14 60.5t17 57.5l67 208h133zM310 764l66 -87l-170 -122l-55 72z" />
    <glyph glyph-name="thorn" unicode="&#xfe;" horiz-adv-x="602" 
d="M63 720h132v-298h4q22 27 57.5 48.5t95.5 21.5q37 0 76 -16t71 -47.5t52 -79.5t20 -112q0 -57 -18.5 -104t-50 -80t-73 -51t-86.5 -18q-52 0 -87.5 20t-56.5 49h-4v-288h-132v955zM433 237q0 27 -7.5 52t-22.5 44t-38.5 30.5t-54.5 11.5q-25 0 -46.5 -10t-38 -28
t-26 -43.5t-9.5 -56.5t9.5 -56.5t26 -43.5t38.5 -28t47 -10q31 0 54 12t38 31.5t22.5 44t7.5 50.5z" />
    <glyph glyph-name="ydieresis" unicode="&#xff;" horiz-adv-x="467" 
d="M212 -235h-128l88 239l-174 475h140l69 -208q8 -26 17.5 -57.5t14.5 -60.5h4q7 35 14 60.5t17 57.5l67 208h133zM94 703h114v-112h-114v112zM278 703h114v-112h-114v112z" />
    <glyph glyph-name="dotlessi" unicode="&#x131;" horiz-adv-x="259" 
d="M62 479h135v-479h-135v479z" />
    <glyph glyph-name="OE" unicode="&#x152;" horiz-adv-x="1064" 
d="M996 558h-265v-147h255v-118h-255v-169h275v-124h-406v81q-43 -49 -99.5 -76t-121.5 -27q-90 0 -155.5 33t-108 85.5t-62.5 117t-20 127.5q0 73 26 138.5t72.5 115.5t110 79.5t139.5 29.5q68 0 122.5 -26t96.5 -73v77h396v-124zM179 341q0 -50 16 -93t45 -74.5t68 -49.5
t86 -18q45 0 84.5 18t68 49.5t45 74.5t16.5 93q0 49 -15.5 92t-43 74.5t-67 50t-87.5 18.5q-47 0 -86.5 -18t-68 -49.5t-45 -74.5t-16.5 -93z" />
    <glyph glyph-name="oe" unicode="&#x153;" horiz-adv-x="910" 
d="M30 240q0 55 18.5 102t51.5 81t78 53t98 19q60 0 107 -23.5t79 -65.5q29 41 74.5 65t107.5 24q53 0 96 -19.5t74 -54t47.5 -80.5t16.5 -98q0 -8 -0.5 -16.5t-1.5 -18.5h-346q0 -25 9 -47.5t24.5 -39.5t37 -27t47.5 -10q32 0 53 13.5t36 36.5h132q-12 -30 -31 -57.5
t-46.5 -48.5t-64.5 -33t-83 -12q-60 0 -106 24t-76 67q-32 -42 -79.5 -66.5t-106.5 -24.5q-53 0 -98 20t-78 54.5t-51.5 81.5t-18.5 101zM165 239q0 -30 9 -55t24.5 -43t37 -28t46.5 -10q54 0 85 39t31 97q0 28 -7.5 52.5t-22.5 43t-36.5 29.5t-49.5 11q-27 0 -48.5 -10.5
t-37 -28.5t-23.5 -43t-8 -54zM640 401q-24 0 -43.5 -8.5t-33.5 -23t-22 -33.5t-10 -39h214q-4 43 -32 73.5t-73 30.5z" />
    <glyph glyph-name="Scaron" unicode="&#x160;" horiz-adv-x="562" 
d="M366 504q-3 38 -25 61t-60 23q-34 0 -56 -20t-22 -53q0 -38 32 -59.5t86 -38.5q105 -35 149 -92.5t44 -134.5q0 -37 -14 -75t-42.5 -68.5t-72 -49.5t-103.5 -19q-51 0 -93.5 14.5t-73.5 43t-50 69.5t-23 94h141q5 -48 29 -76.5t72 -28.5q42 0 66 26t24 62q0 43 -29 69
t-94 47q-102 34 -144 89.5t-42 125.5q0 43 17 78.5t46 60.5t69 38.5t85 13.5q49 0 88.5 -14.5t68 -40.5t44.5 -63t18 -82h-135zM108 835l35 71l131 -60l131 60l34 -71l-165 -103z" />
    <glyph glyph-name="scaron" unicode="&#x161;" horiz-adv-x="441" 
d="M276 350q-2 26 -17 40t-38 14q-24 0 -36.5 -13t-12.5 -29q0 -10 3.5 -18.5t14 -17t29.5 -17.5t49 -19q76 -25 107 -63t31 -90q0 -33 -12.5 -61t-36 -49t-58 -32.5t-78.5 -11.5q-92 0 -136.5 43.5t-48.5 113.5h121q2 -29 18 -47t49 -18q26 0 40.5 15t14.5 36
q0 25 -20.5 42t-74.5 35q-68 22 -102.5 57t-34.5 92q0 32 12.5 58.5t35.5 45t54.5 29t70.5 10.5q80 0 123.5 -41t51.5 -104h-119zM58 679l49 68l116 -77l116 77l48 -68l-164 -127z" />
    <glyph glyph-name="Ydieresis" unicode="&#x178;" horiz-adv-x="598" 
d="M228 272l-221 410h155l105 -203q11 -22 20.5 -43.5t15.5 -41.5h2q8 21 17 41t20 43l99 204h150l-220 -409v-273h-143v272zM156 883h114v-112h-114v112zM340 883h114v-112h-114v112z" />
    <glyph glyph-name="Zcaron" unicode="&#x17d;" horiz-adv-x="619" 
d="M55 682h510v-117l-348 -441h364v-124h-543v116l347 442h-330v124zM133 835l35 71l131 -60l131 60l34 -71l-165 -103z" />
    <glyph glyph-name="zcaron" unicode="&#x17e;" horiz-adv-x="486" 
d="M45 479h395v-108l-235 -259h247v-112h-419v108l236 259h-224v112zM74 679l49 68l116 -77l116 77l48 -68l-164 -127z" />
    <glyph glyph-name="florin" unicode="&#x192;" 
d="M210 368h-74v114h90l7 50q14 87 55.5 129.5t120.5 42.5q23 0 43 -2.5t34 -5.5v-111q-12 3 -25 4t-24 1q-31 0 -47.5 -17t-22.5 -52l-6 -39h86v-114h-102l-71 -445q-14 -90 -56 -135.5t-119 -45.5q-26 0 -45.5 2.5t-33.5 5.5v112q11 -3 25 -4.5t26 -1.5q29 0 45.5 17
t22.5 58z" />
    <glyph glyph-name="uni0237" unicode="&#x237;" horiz-adv-x="259" 
d="M197 -34q0 -114 -49.5 -165.5t-134.5 -51.5q-30 0 -53.5 4t-40.5 10v114q9 -3 28 -6.5t39 -3.5q37 0 56.5 21t19.5 76v515h135v-513z" />
    <glyph glyph-name="circumflex" unicode="&#x2c6;" horiz-adv-x="322" 
d="M325 620l-48 -68l-116 77l-116 -77l-49 68l165 127z" />
    <glyph glyph-name="caron" unicode="&#x2c7;" horiz-adv-x="322" 
d="M-4 679l49 68l116 -77l116 77l48 -68l-164 -127z" />
    <glyph glyph-name="ring" unicode="&#x2da;" horiz-adv-x="322" 
d="M106 659q0 -23 16.5 -39.5t39.5 -16.5t39.5 16.5t16.5 39.5t-16.5 39.5t-39.5 16.5t-39.5 -16.5t-16.5 -39.5zM33 659q0 27 10 50.5t27 41t41 27.5t51 10t50.5 -10t41.5 -27.5t28 -41t10 -50.5t-10 -50.5t-28 -41.5t-41.5 -28t-50.5 -10t-51 10t-41 28t-27 41.5t-10 50.5
z" />
    <glyph glyph-name="tilde" unicode="&#x2dc;" horiz-adv-x="322" 
d="M-14 587q2 62 29 100t78 38q21 0 38 -7t37 -21q20 -15 34 -21t25 -6t20 8.5t10 36.5h79q-3 -70 -31 -103.5t-79 -33.5q-23 0 -41.5 7t-37.5 21q-21 15 -32 21t-21 6q-12 0 -20 -11.5t-9 -34.5h-79z" />
    <glyph glyph-name="endash" unicode="&#x2013;" horiz-adv-x="554" 
d="M75 211v105h404v-105h-404z" />
    <glyph glyph-name="emdash" unicode="&#x2014;" horiz-adv-x="1104" 
d="M75 211v105h954v-105h-954z" />
    <glyph glyph-name="quoteleft" unicode="&#x2018;" horiz-adv-x="276" 
d="M214 454h-152v68q0 61 15.5 109t41.5 89h75q-17 -25 -27.5 -58t-13.5 -66h61v-142z" />
    <glyph glyph-name="quoteright" unicode="&#x2019;" horiz-adv-x="276" 
d="M61 720h153v-68q0 -61 -15.5 -109t-41.5 -89h-75q17 25 27.5 58t13.5 66h-62v142z" />
    <glyph glyph-name="quotesinglbase" unicode="&#x201a;" horiz-adv-x="276" 
d="M61 142h153v-68q0 -61 -15.5 -109t-41.5 -89h-75q17 25 27.5 58t13.5 66h-62v142z" />
    <glyph glyph-name="quotedblleft" unicode="&#x201c;" horiz-adv-x="484" 
d="M214 454h-152v68q0 61 15.5 109t41.5 89h75q-17 -25 -27.5 -58t-13.5 -66h61v-142zM423 454h-153v68q0 61 15.5 109t41.5 89h75q-16 -25 -27 -58t-14 -66h62v-142z" />
    <glyph glyph-name="quotedblright" unicode="&#x201d;" horiz-adv-x="484" 
d="M270 720h152v-68q0 -61 -15 -109t-41 -89h-75q16 25 27 58t14 66h-62v142zM61 720h153v-68q0 -61 -15.5 -109t-41.5 -89h-75q17 25 27.5 58t13.5 66h-62v142z" />
    <glyph glyph-name="quotedblbase" unicode="&#x201e;" horiz-adv-x="484" 
d="M270 142h152v-68q0 -61 -15 -109t-41 -89h-75q16 25 27 58t14 66h-62v142zM61 142h153v-68q0 -61 -15.5 -109t-41.5 -89h-75q17 25 27.5 58t13.5 66h-62v142z" />
    <glyph glyph-name="dagger" unicode="&#x2020;" horiz-adv-x="466" 
d="M280 430l17 -96l-17 -334h-95l-17 334l17 96l-141 -18v129l141 -17l-17 158h129l-17 -158l142 17v-129z" />
    <glyph glyph-name="daggerdbl" unicode="&#x2021;" horiz-adv-x="466" 
d="M277 0h-89l-14 138l14 75l-144 -14v117l144 -14l-14 75l14 75l-144 -15v117l144 -14l-14 142h117l-14 -142l145 14v-117l-145 15l14 -75l-14 -75l145 14v-117l-145 14l14 -75z" />
    <glyph glyph-name="bullet" unicode="&#x2022;" horiz-adv-x="429" 
d="M65 304q0 31 11.5 58t31.5 47.5t47 32.5t58 12t58.5 -12t48 -32.5t32.5 -47.5t12 -58t-12 -58.5t-32.5 -47.5t-48 -32t-58.5 -12t-58 12t-47 32t-31.5 47.5t-11.5 58.5z" />
    <glyph glyph-name="ellipsis" unicode="&#x2026;" horiz-adv-x="1004" 
d="M88 152h162v-152h-162v152zM421 152h162v-152h-162v152zM754 152h162v-152h-162v152z" />
    <glyph glyph-name="perthousand" unicode="&#x2030;" horiz-adv-x="1188" 
d="M692 682l-466 -682h-99l466 682h99zM37 513q0 50 15.5 86t39.5 59t53.5 34t58.5 11q27 0 55.5 -10t52 -32t38.5 -58t15 -88q0 -57 -16.5 -95t-41.5 -60.5t-53.5 -31.5t-52.5 -9q-27 0 -56 10t-53 33t-39.5 60t-15.5 91zM266 512q0 52 -17 79.5t-48 27.5q-27 0 -46.5 -25
t-19.5 -81q0 -57 18 -83t49 -26q26 0 45 25.5t19 82.5zM453 172q0 50 15 86t39 59t54 34t59 11q27 0 55.5 -10t52 -32.5t38.5 -58t15 -87.5q0 -58 -16.5 -95.5t-41.5 -59.5t-53.5 -31t-52.5 -9q-28 0 -57 10t-53 32.5t-39 59.5t-15 91zM682 171q0 52 -17 79t-49 27
q-26 0 -45.5 -24.5t-19.5 -80.5q0 -57 18 -83t48 -26q26 0 45.5 25.5t19.5 82.5zM823 172q0 50 15.5 86t39.5 59t53.5 34t58.5 11q27 0 56 -10t52 -32.5t38 -58t15 -87.5q0 -58 -16.5 -95.5t-41.5 -59.5t-53.5 -31t-52.5 -9q-27 0 -56 10t-53 32.5t-39.5 59.5t-15.5 91z
M1053 171q0 52 -17 79t-49 27q-27 0 -46.5 -24.5t-19.5 -80.5q0 -57 18.5 -83t48.5 -26q26 0 45.5 25.5t19.5 82.5z" />
    <glyph glyph-name="guilsinglleft" unicode="&#x2039;" horiz-adv-x="300" 
d="M176 458l82 -44l-86 -166l86 -166l-82 -45l-130 211z" />
    <glyph glyph-name="guilsinglright" unicode="&#x203a;" horiz-adv-x="300" 
d="M125 37l-83 45l86 166l-86 165l83 45l130 -210z" />
    <glyph glyph-name="Euro" unicode="&#x20ac;" 
d="M553 -4q-27 -8 -57.5 -13t-63.5 -5q-69 0 -122 17t-92.5 48t-66 74.5t-40.5 96.5h-94l27 96h52q0 8 -0.5 16t-0.5 16q0 10 0.5 21t1.5 21h-68l27 96h59q16 50 44.5 91.5t67.5 71t88.5 45.5t109.5 16q31 0 66.5 -5t62.5 -14l-32 -113q-20 6 -44.5 10.5t-50.5 4.5
q-53 0 -97 -25t-69 -82h237l-27 -96h-234q-1 -10 -1.5 -20.5t-0.5 -20.5v-16.5t1 -16.5h217l-27 -96h-169q23 -58 69.5 -88t114.5 -30q30 0 60 5.5t52 12.5v-118z" />
    <glyph glyph-name="trademark" unicode="&#x2122;" horiz-adv-x="619" 
d="M553 451h-72l-7 105q-1 17 -1 24v15h-3q-2 -8 -4 -17.5t-6 -21.5l-35 -105h-51l-30 98q-5 16 -8 26t-5 20h-2v-16.5t-1 -25.5l-7 -102h-74l19 231h98l27 -84q5 -16 7 -23t3 -12h1q2 8 4 15t7 21l25 83h98zM41 682h193v-65h-61v-166h-72v166h-60v65z" />
    <glyph glyph-name="glyph221" horiz-adv-x="322" 
d="M77 910l189 -95l-37 -83l-196 78z" />
    <glyph glyph-name="glyph222" horiz-adv-x="322" 
d="M289 810l-196 -78l-37 83l188 95z" />
    <glyph glyph-name="glyph223" horiz-adv-x="322" 
d="M326 803l-35 -71l-130 60l-131 -60l-35 71l166 103z" />
    <glyph glyph-name="glyph224" horiz-adv-x="322" 
d="M-14 767q2 62 29 100t78 38q21 0 38 -7t37 -21q20 -15 34 -21t25 -6t20 8.5t10 36.5h79q-3 -70 -31 -103.5t-79 -33.5q-23 0 -41.5 7t-37.5 21q-21 15 -32 21t-21 6q-12 0 -20 -11.5t-9 -34.5h-79z" />
    <glyph glyph-name="glyph225" horiz-adv-x="322" 
d="M12 883h114v-112h-114v112zM196 883h114v-112h-114v112z" />
    <glyph glyph-name="glyph226" horiz-adv-x="322" 
d="M106 844q0 -23 16.5 -39.5t39.5 -16.5t39.5 16.5t16.5 39.5t-16.5 39.5t-39.5 16.5t-39.5 -16.5t-16.5 -39.5zM33 844q0 27 10 50.5t27 41t41 27.5t51 10t50.5 -10t41.5 -27.5t28 -41t10 -50.5t-10 -50.5t-28 -41.5t-41.5 -28t-50.5 -10t-51 10t-41 28t-27 41.5t-10 50.5
z" />
    <glyph glyph-name="glyph228" horiz-adv-x="322" 
d="M-5 835l35 71l131 -60l131 60l34 -71l-165 -103z" />
  </font>
</defs>
</svg>
